<svg xmlns="http://www.w3.org/2000/svg" enable-background="new 0 0 1000 1000" viewBox="0 0 1000 1000" id="ask-customer-feedback"><radialGradient id="a" cx="-549.43" cy="1929.636" r="354.161" gradientTransform="matrix(.9946 .1035 -.054 .5187 1547.31 -86.754)" gradientUnits="userSpaceOnUse"><stop offset="0" stop-color="#fff"></stop><stop offset=".224" stop-color="#fcfeff"></stop><stop offset=".36" stop-color="#f4f9fe"></stop><stop offset=".473" stop-color="#e6f1fd"></stop><stop offset=".574" stop-color="#d1e6fc"></stop><stop offset=".666" stop-color="#b7d8fa"></stop><stop offset=".751" stop-color="#96c7f7"></stop><stop offset=".833" stop-color="#6fb2f5"></stop><stop offset=".91" stop-color="#429af2"></stop><stop offset=".982" stop-color="#117fee"></stop><stop offset="1" stop-color="#0378ed"></stop></radialGradient><path fill="url(#a)" d="M831.71 805.552c-.578 5.552-59.365 3.985-131.306-3.5-71.941-7.485-129.792-18.053-129.214-23.605.578-5.552 59.365-3.985 131.306 3.5 71.94 7.485 129.792 18.053 129.214 23.605z" opacity=".55"></path><radialGradient id="b" cx="2256.785" cy="1369.691" r="354.161" gradientTransform="matrix(-.9946 .1035 .054 .5187 2229.99 -86.754)" gradientUnits="userSpaceOnUse"><stop offset="0" stop-color="#fff"></stop><stop offset=".224" stop-color="#fcfeff"></stop><stop offset=".36" stop-color="#f4f9fe"></stop><stop offset=".473" stop-color="#e6f1fd"></stop><stop offset=".574" stop-color="#d1e6fc"></stop><stop offset=".666" stop-color="#b7d8fa"></stop><stop offset=".751" stop-color="#96c7f7"></stop><stop offset=".833" stop-color="#6fb2f5"></stop><stop offset=".91" stop-color="#429af2"></stop><stop offset=".982" stop-color="#117fee"></stop><stop offset="1" stop-color="#0378ed"></stop></radialGradient><path fill="url(#b)" d="M124.29 805.552c.578 5.552 59.365 3.985 131.306-3.5 71.941-7.485 129.792-18.053 129.214-23.605-.578-5.552-59.365-3.985-131.306 3.5-71.94 7.485-129.792 18.053-129.214 23.605z" opacity=".55"></path><linearGradient id="c" x1="1791.084" x2="1791.261" y1="1152.258" y2="1152.258" gradientTransform="scale(-1 1) rotate(-31.069 -94.784 5167.336)" gradientUnits="userSpaceOnUse"><stop offset=".268" stop-color="#8dc63f"></stop><stop offset="1" stop-color="#009444"></stop></linearGradient><path fill="url(#c)" d="m550.987 755.782 1.013-1.449c-.008.046-.012.093-.018.14-.31.448-.636.887-.995 1.309z"></path><linearGradient id="d" x1="1815.142" x2="1967.748" y1="927.909" y2="1156.818" gradientTransform="scale(-1 1) rotate(-25.202 -168.655 6496.261)" gradientUnits="userSpaceOnUse"><stop offset="0" stop-color="#9463d3"></stop><stop offset="1" stop-color="#3f53c4"></stop></linearGradient><path fill="url(#d)" d="M542.003 677.712c5.341-1.521 11.001-1.917 16.152-3.99 1.876-.756 3.742-1.799 4.828-3.504 2.225-3.495.378-8.003-.354-12.082-2.246-12.493 6.683-23.964 15.037-33.521 2.319-2.653 4.987-5.494 8.495-5.835 5.101-.495 8.909 4.358 11.878 8.535 2.971 4.176 7.51 8.686 12.412 7.193 4.855-1.478 6.174-7.899 5.082-12.856-1.238-5.616-4.381-10.668-5.656-16.277-1.276-5.609.091-12.614 5.319-15.014 6.212-2.852 12.919 2.375 17.945 7.009 5.025 4.634 12.49 9.253 18.131 5.391 3.201-2.19 4.355-6.51 3.88-10.359-.475-3.851-2.283-7.387-3.954-10.888-.92-1.927-1.828-4.071-1.285-6.136.496-1.896 2.114-3.281 3.776-4.32 9.422-5.892 23.089-3.604 30.079 5.036 6.99 8.64 6.374 22.483-1.356 30.469-2.932 3.028-7.081 6.8-5.159 10.551 2.522 4.925 10.173.867 15.521 2.287 4.486 1.192 6.776 6.664 5.798 11.202-.979 4.538-4.374 8.169-8.033 11.027-7.037 5.497-15.395 8.975-23.334 13.067-1.267.653-2.588 1.382-3.311 2.609-1.211 2.051-.314 4.716 1.035 6.679 3.043 4.425 8.001 7.047 12.293 10.273 4.295 3.225 8.315 7.881 7.934 13.239-.41 5.776-5.858 10.003-11.395 11.696-5.539 1.693-11.478 1.64-17.071 3.144-1.638.441-3.355 1.098-4.297 2.51-1.454 2.181-.47 5.094.548 7.509 5.499 13.025 10.995 26.053 16.493 39.078.758 1.795 1.525 3.804.864 5.638-.326.902-.968 1.651-1.641 2.334-7.152 7.246-18.622 8.619-28.534 6.287-9.911-2.331-18.748-7.776-27.661-12.699-2.467-1.364-5.025-2.715-7.821-3.079-3.921-.51-7.796.976-11.488 2.393a540.573 540.573 0 0 1-24.309 8.677c-4.229 1.395-8.968 2.717-12.999.823-2.67-1.255-4.245-4.613-3.86-7.333.239-.345.451-.703.661-1.062l-.646.92c.184-1.096.691-2.078 1.59-2.763 3.136-7.169 1.528-16.291-2.339-23.406-4.676-8.604-12.014-15.429-17.591-23.477-3.483-5.024-6.349-11.353-4.288-17.109 1.871-5.228 7.291-8.343 12.631-9.866z"></path><path fill="#4256cb" d="M562.138 710.725c7.788 2.25 13.932 7.522 17.312 14.838 6.341-7.638 13.31-14.532 20.243-21.606-.037-.052-.079-.096-.106-.162a269.683 269.683 0 0 1-9.288-27.899c-.283-1.03 1.288-1.601 1.572-.562a269.918 269.918 0 0 0 9.076 27.335c.704-.723 1.41-1.442 2.112-2.171 8.082-8.391 14.26-18.21 20.31-28.101-.031-.059-.07-.11-.089-.186-2.064-8.495-3.144-17.059-3.211-25.804-.009-1.068 1.658-1.203 1.666-.124a110.437 110.437 0 0 0 2.84 24.14c.411-.674.822-1.348 1.234-2.02a1232.504 1232.504 0 0 0 21.137-35.943c.528-.931 2.041-.223 1.51.715-4.692 8.286-9.508 16.5-14.384 24.678l7.316.6c2.319.19 8.508 1.648 10.124-.427.662-.851 1.938.228 1.28 1.075-1.534 1.971-3.856 1.636-6.121 1.454-4.517-.367-9.034-.742-13.552-1.112-1.93 3.226-3.837 6.465-5.8 9.673-4.143 6.773-8.233 13.672-12.852 20.165 7.862 2.05 15.724 4.102 23.586 6.154 1.034.27.736 1.914-.307 1.642l-24.21-6.318c-.044-.01-.073-.037-.112-.054-2.304 3.15-4.731 6.203-7.384 9.072-5.783 6.252-11.867 12.107-17.674 18.26 10.57-.329 20.799 1.836 30.334 6.495.967.472.254 1.984-.714 1.511-9.696-4.738-20.018-6.859-30.795-6.314a.859.859 0 0 1-.352-.052c-2.604 2.812-5.15 5.692-7.565 8.721-8.353 10.48-15.839 21.606-23.315 32.717-.6.893-1.874-.192-1.28-1.075 7.25-10.775 14.506-21.566 22.558-31.766.343-.434.7-.852 1.047-1.281-.008-.016-.022-.024-.03-.042-3.04-7.159-8.946-12.421-16.423-14.581-1.023-.298-.727-1.944.307-1.645z"></path><linearGradient id="e" x1="6337.102" x2="6337.341" y1="-1018.227" y2="-1018.227" gradientTransform="scale(-1 1) rotate(41.087 508.172 -9323.285)" gradientUnits="userSpaceOnUse"><stop offset=".268" stop-color="#8dc63f"></stop><stop offset="1" stop-color="#009444"></stop></linearGradient><path fill="url(#e)" d="m557.06 768.45-1.449-1.909c.055.029.115.054.173.081.449.587.881 1.189 1.276 1.828z"></path><linearGradient id="f" x1="6075.064" x2="6281.931" y1="-1770.763" y2="-1460.461" gradientTransform="scale(-1 1) rotate(46.953 243.591 -8171.508)" gradientUnits="userSpaceOnUse"><stop offset="0" stop-color="#9463d3"></stop><stop offset="1" stop-color="#3f53c4"></stop></linearGradient><path fill="url(#f)" d="M452.591 747.612c.256-7.523 2.096-14.991 1.561-22.499-.196-2.734-.767-5.576-2.516-7.685-3.586-4.323-10.17-3.813-15.737-4.562-17.054-2.291-28.146-18.578-37.008-33.327-2.46-4.094-5.017-8.718-4-13.385 1.48-6.788 9.324-9.685 15.947-11.781 6.623-2.098 14.328-6.082 14.437-13.028.109-6.879-7.628-11.248-14.477-11.898-7.761-.736-15.586 1.221-23.353.537-7.767-.683-16.239-5.358-17.164-13.1-1.1-9.2 8.432-15.684 16.498-20.243 8.066-4.56 17.128-12.273 14.488-21.156-1.497-5.04-6.591-8.324-11.754-9.31-5.166-.986-10.481-.123-15.692.579-2.869.386-6.012.667-8.451-.891-2.241-1.428-3.355-4.09-4.006-6.667-3.689-14.605 4.941-31.29 18.993-36.721 14.053-5.43 31.659 1.115 38.752 14.406 2.69 5.041 5.834 11.961 11.472 11.039 7.402-1.209 5.344-12.767 9.398-19.078 3.401-5.294 11.413-5.976 16.863-2.828s8.724 9.037 10.891 14.945c4.17 11.364 5.186 23.594 7.168 35.537.316 1.906.708 3.913 1.992 5.357 2.144 2.414 5.955 2.364 9.048 1.439 6.974-2.088 12.416-7.397 18.362-11.595 5.945-4.203 13.623-7.455 20.378-4.738 7.283 2.928 10.474 11.714 10.358 19.562-.117 7.851-2.651 15.492-3.035 23.333-.112 2.297.023 4.785 1.453 6.587 2.21 2.782 6.378 2.723 9.917 2.412 19.091-1.684 38.184-3.365 57.275-5.048 2.631-.232 5.542-.387 7.634 1.227 1.029.795 1.729 1.935 2.33 3.088 6.379 12.238 3.385 27.61-3.741 39.431-7.125 11.82-17.822 20.961-27.877 30.417-2.785 2.617-5.59 5.357-7.222 8.813-2.286 4.848-1.979 10.465-1.684 15.818a732.366 732.366 0 0 1 1.098 34.972c.044 6.036-.219 12.701-4.338 17.115-2.729 2.924-7.716 3.561-11.066 1.935-.347-.451-.72-.874-1.096-1.294l.922 1.214c-1.338-.692-2.394-1.755-2.905-3.199-7.947-7.024-20.386-8.739-31.173-6.704-13.045 2.459-24.9 9.092-37.602 12.946-7.93 2.407-17.287 3.477-23.858-1.574-5.965-4.587-7.734-12.875-7.48-20.398z"></path><path fill="#4256cb" d="M503.553 735.344c6.139-9.115 15.494-14.852 26.337-16.175-7.222-11.355-13.222-23.212-19.471-35.095-.083.026-.157.062-.254.07a365.752 365.752 0 0 1-39.858.395c-1.446-.063-1.53-2.327-.073-2.262 13.029.579 26.029.455 39.042-.356-.64-1.209-1.275-2.418-1.924-3.627-7.47-13.914-17.574-25.964-27.824-37.88-.089.016-.171.044-.277.037-11.818-.866-23.318-3.029-34.63-6.576-1.381-.432-.864-2.639.533-2.201a149.72 149.72 0 0 0 32.329 6.364l-2.094-2.431c-12.286-14.286-24.836-28.342-37.599-42.204-.983-1.068.56-2.727 1.55-1.652 8.743 9.496 17.342 19.122 25.869 28.811l3.814-9.191c1.209-2.913 5.661-10.293 3.655-13.24-.823-1.208 1.099-2.407 1.918-1.205 1.905 2.799.509 5.656-.666 8.502-2.349 5.676-4.71 11.349-7.064 17.025 3.361 3.831 6.749 7.636 10.072 11.502 7.019 8.159 14.222 16.302 20.682 24.961l17.738-27.878c.778-1.222 2.776-.155 1.991 1.078l-18.21 28.615c-.032.053-.078.079-.116.122 3.107 4.282 6.039 8.682 8.638 13.296 5.665 10.06 10.693 20.342 16.22 30.39 3.966-13.776 11.009-26.076 20.981-36.443 1.011-1.051 2.665.496 1.653 1.549-10.141 10.544-17.166 22.981-20.94 37.113a1.15 1.15 0 0 1-.213.432c2.547 4.529 5.206 9.01 8.11 13.384 10.053 15.132 21.3 29.413 32.532 43.675.903 1.146-1.026 2.338-1.918 1.205-10.892-13.83-21.802-27.676-31.619-42.303-.417-.623-.808-1.257-1.218-1.883-.024.004-.04.019-.066.021-10.501.949-19.743 6.384-25.636 15.135-.809 1.196-2.81.131-1.994-1.08z"></path><linearGradient id="g" x1="3479.22" x2="3769.245" y1="794.082" y2="627.801" gradientTransform="rotate(42.155 2195.184 -3305.778)" gradientUnits="userSpaceOnUse"><stop offset="0" stop-color="#9463d3"></stop><stop offset="1" stop-color="#3f53c4"></stop></linearGradient><path fill="url(#g)" d="m738.497 670.214.126-.095a21.504 21.504 0 0 0 1.219-.919 35.927 35.927 0 0 0-1.798-2.43l-.129-.173-.018.006c-15.307-18.818-34.325-.528-34.325-.528 15.182 15.807 30.404 7.295 34.925 4.139z"></path><linearGradient id="h" x1="3482.175" x2="3772.196" y1="799.231" y2="632.952" gradientTransform="rotate(42.155 2195.184 -3305.778)" gradientUnits="userSpaceOnUse"><stop offset="0" stop-color="#9463d3"></stop><stop offset="1" stop-color="#3f53c4"></stop></linearGradient><path fill="url(#h)" d="M707.534 705.962a34.087 34.087 0 0 0-1.103-2.759l-.1-.254h-.015c-5.813-12.802-15.993-13.886-23.519-12.509 8.809-7.362 16.037-16.13 21.724-26.154.066.013.112.038.166.046 0 0 .062-.196.125-.533 3.223-5.747 5.958-11.904 8.186-18.438 1.882-5.479 3.376-11.061 4.616-16.692 19.841 12.23 32.668-5.272 32.668-5.272a32.845 32.845 0 0 0-2.08-1.768l-.21-.187-.029-.001c-14.439-11.224-25.985.129-29.848 4.837 2.305-11.296 3.523-22.823 4.344-34.356 20.015 12.591 32.971-5.094 32.971-5.094-.7-.65-1.39-1.235-2.088-1.781l-.212-.181-.018.006c-15.469-12.03-27.645 1.897-30.562 5.753.445-6.546.769-13.084 1.084-19.581.039-.511-.134-.878-.402-1.148 1.794-3.914 8.796-21.909-9.621-29.803l-.013-.03-.308-.114c-.8-.327-1.618-.648-2.512-.937 0 0-.236.494-.536 1.382l-.032.087c-1.619 4.687-5.127 19.595 10.906 29.202-.564.279-1.008.802-1.051 1.57-.172 3.426-.35 6.864-.534 10.312-2.366-6.623-7.874-13.976-20.558-12.985l-.02-.018-.272.038a33.15 33.15 0 0 0-2.71.34s.036.536.167 1.449l.014.111.012.006c.74 4.863 4.475 19.496 22.758 20.77-.426 6.098-.969 12.193-1.732 18.257-1.659-3.871-4.973-7.494-10.955-10.061l-.005-.017-.304-.12c-.8-.326-1.625-.636-2.516-.931 0 0-.233.489-.532 1.347l-.05.122.011.006c-1.611 4.7-5.129 19.653 11.012 29.251-1.814 8.101-4.212 16.051-7.459 23.737-.308.766-.673 1.471-.998 2.213-.474-7.75-3.953-17.885-18.333-20.201l.003-.006-.07-.008a37.398 37.398 0 0 0-3.159-.368s-4.06 21.322 17.352 28.787c-5.698 9.826-13.03 18.154-21.608 25.034 3.721-6.92 6.474-17.977-5.322-27.544l.001-.029-.214-.152a40.754 40.754 0 0 0-2.392-1.766s-.353.408-.882 1.144l-.137.2c-3.012 4.337-10.919 18.49 2.326 33.005-8.562 5.722-18.158 10.178-28.494 13.371l-.052.016c4.875-6.071 9.21-16.054-.074-27.463l.009-.017-.138-.156a38.43 38.43 0 0 0-2.009-2.256s-16.923 12.94-6.574 32.454c-17.716 4.931-35.817 8.9-51.734 17.881 3.739-8.877 6.597-24.06-10.498-34.303l-.013-.029-.367-.197a46.17 46.17 0 0 0-3.13-1.683s-14.387 22.517 6.821 40.753a71.966 71.966 0 0 0-4.851 3.66c-6.202 5.099-11.274 11.204-15.574 17.88 1.708-9.992.315-23.951-17.308-31.151l-.003-.023-.334-.121a48.05 48.05 0 0 0-3.648-1.297s-.34.742-.763 2.051l-.003.006c-2.143 6.594-6.662 27.477 15.876 40.574 1.654.032 3.251.773 4.043 2.27 22.977 12.941 38.698-1.777 43.278-7.024l.03-.028c.893-1.028 1.35-1.685 1.35-1.685a45.815 45.815 0 0 0-2.98-2.459l-.287-.236-.032.005c-15.675-11.756-28.679-5.06-36.288 1.75 5.393-8.408 11.999-15.906 20.379-21.866.16.116.285.213.444.328 0 0 .31-.44.797-1.234.443-.302.917-.579 1.369-.869 24.078 20.651 44.354-.391 44.354-.391a46.775 46.775 0 0 0-2.435-2.729l-.203-.227h-.029c-5.073-5.19-10.172-7.667-14.982-8.428 9.449-2.945 19.14-5.214 28.698-7.894.089.137.175.279.267.41 0 0 .395-.268 1.04-.779.384-.111.766-.216 1.148-.321 10.661 19.017 27.483 14.706 32.66 12.804l-.003.006.021-.012a19.415 19.415 0 0 0 1.554-.635 39.04 39.04 0 0 0-1.103-2.759l-.106-.243h-.014c-5.368-11.845-14.471-13.666-21.773-12.789 4.445-1.586 8.809-3.378 13.044-5.536a99.64 99.64 0 0 0 10.554-6.21c10.674 16.052 26.154 12.063 31.076 10.252l.009.012.006-.012c.988-.361 1.55-.635 1.55-.635z"></path><linearGradient id="i" x1="4469.331" x2="4687.064" y1="273.832" y2="148.998" gradientTransform="scale(-1 1) rotate(16.547 519.399 -17053.88)" gradientUnits="userSpaceOnUse"><stop offset="0" stop-color="#9463d3"></stop><stop offset="1" stop-color="#3f53c4"></stop></linearGradient><path fill="url(#i)" d="m372.611 620.596-.054-.105c-.352-.634-.527-1.018-.527-1.018a27.184 27.184 0 0 1 2.006-1.062l.143-.076.01.01c16.47-7.773 23.41 10.781 23.41 10.781-15.408 5.776-22.952-4.927-24.988-8.53z"></path><linearGradient id="j" x1="4471.549" x2="4689.28" y1="277.697" y2="152.865" gradientTransform="scale(-1 1) rotate(16.547 519.399 -17053.88)" gradientUnits="userSpaceOnUse"><stop offset="0" stop-color="#9463d3"></stop><stop offset="1" stop-color="#3f53c4"></stop></linearGradient><path fill="url(#j)" d="M381.974 654.846a25.206 25.206 0 0 1 1.642-1.51l.15-.139.01.005c8.09-6.781 15.334-4.212 19.983-.837-3.575-7.843-5.624-16.125-6.221-24.757-.049-.012-.088-.01-.128-.023 0 0 .022-.153.089-.401-.317-4.937-.171-9.993.441-15.139.504-4.32 1.304-8.584 2.292-12.799-17.402 1.841-20.407-14.17-20.407-14.17a24.607 24.607 0 0 1 1.982-.523l.203-.058.02.008c13.418-2.914 17.551 8.519 18.638 12.961 2.105-8.396 5.021-16.596 8.207-24.67-17.637 2.029-20.669-14.148-20.669-14.148a24.206 24.206 0 0 1 1.991-.528l.203-.054.011.01c14.376-3.125 18.101 10.255 18.824 13.813 1.823-4.576 3.725-9.108 5.62-13.609.139-.359.375-.551.645-.647.055-3.232 1.154-17.688 16.185-17.056l.019-.016.245.023c.648.038 1.306.086 2.005.181 0 0 0 .411-.085 1.11l-.007.069c-.425 3.699-2.887 14.93-16.859 16.232.291.372.423.87.202 1.404-.995 2.375-1.99 4.76-2.985 7.155 3.751-3.716 9.866-6.907 18.132-2.12l.02-.006.172.114a24.44 24.44 0 0 1 1.724 1.11s-.199.351-.583.927l-.046.071-.01.001c-2.079 3.052-9.356 11.747-22.148 6.677-1.69 4.267-3.301 8.57-4.752 12.923 2.379-2.082 5.799-3.46 10.682-3.256l.009-.01.245.017c.648.039 1.306.096 2.006.186 0 0-.001.406-.077 1.085l-.005.099h-.009c-.434 3.705-2.905 14.97-16.948 16.23-1.401 6.074-2.357 12.234-2.653 18.491-.04.619-.022 1.215-.042 1.822 2.836-5.094 8.48-10.826 18.967-7.727v-.005l.05.017a28.12 28.12 0 0 1 2.258.776s-4.17 15.754-21.09 13.859c.669 8.502 2.931 16.519 6.506 23.961-.274-5.893 1.45-14.272 12.541-16.921l.009-.02.194-.034a30.019 30.019 0 0 1 2.192-.419s.107.391.226 1.06l.028.18c.632 3.914 1.393 16.062-12.285 21.591 3.94 6.652 8.991 12.783 14.953 18.299.01.009.021.018.03.028-1.331-5.692-1.026-13.858 8.962-18.57l-.001-.014.144-.061c.66-.305 1.352-.601 2.092-.875 0 0 7.259 14.253-6.081 24.106 10.394 9.088 21.361 17.649 29.224 28.894.349-7.223 3.341-18.43 18.239-19.818l.018-.015.313-.014c.849-.069 1.737-.12 2.666-.124 0 0 2.434 19.913-17.843 25.378a53.939 53.939 0 0 1 2.096 4.052c2.544 5.464 3.997 11.244 4.742 17.159 2.086-7.319 7.559-16.318 21.827-15.474l.009-.015.265.027c.933.064 1.896.156 2.891.306 0 0-.011.613-.149 1.636v.005c-.689 5.16-4.406 20.765-23.915 22.318-1.13-.515-2.452-.532-3.474.225-19.755 1.305-25.623-13.761-27.022-18.799l-.012-.029c-.271-.985-.367-1.578-.367-1.578a34.561 34.561 0 0 1 2.815-.698l.271-.067.02.014c14.428-2.872 21.059 5.88 24.001 12.96-.923-7.443-2.962-14.663-6.702-21.417-.146.026-.262.052-.407.078 0 0-.067-.398-.139-1.094-.202-.348-.433-.69-.645-1.032-23.003 6.168-29.902-14.658-29.902-14.658.871-.407 1.717-.75 2.534-1.057l.211-.088.02.009c5.119-1.868 9.375-1.89 12.878-.845-5.442-5.06-11.267-9.741-16.868-14.657-.105.063-.209.132-.314.191 0 0-.181-.309-.452-.865-.224-.2-.449-.395-.673-.59-13.389 9.415-23.379 1.038-26.267-1.929l.001.005-.01-.015c-.555-.571-.846-.934-.846-.934a29.083 29.083 0 0 1 1.642-1.51l.151-.13.01.004c7.478-6.278 14.232-4.556 18.891-1.593-2.495-2.516-4.868-5.146-7.035-7.981a74.954 74.954 0 0 1-5.13-7.629c-12.436 7.404-21.622-.32-24.366-3.143l-.01.005v-.01c-.554-.569-.845-.937-.845-.937z"></path><path fill="#232b57" d="M537.94 213.7c50.812 0 89.26 15.811 115.335 47.421 20.725 24.948 31.091 54.239 31.091 87.881 0 56.271-29.374 109.782-88.116 160.534-20.481 17.695-31.388 38.285-32.727 61.778-.675 7.83-1.012 16.532-1.012 26.103v32.629l-27.816 12.702-66.96-12.702v-32.629c0-51.336 14.542-89.472 43.627-114.418 31.42-26.974 52.982-54.667 64.688-83.096 6.683-16.532 10.028-33.933 10.028-52.206 0-18.85-4.849-33.642-14.542-44.375-10.703-12.467-26.248-17.545-46.636-15.227-19.055 2.033-32.767 13.487-41.119 34.37-3.682 8.701-6.19 18.857-7.521 30.453l-27.816 12.702-63.449-26.624c3.338-33.934 16.376-62.498 39.113-85.706 15.373-15.662 36.771-26.973 64.187-33.933 14.372-3.767 30.919-5.657 49.645-5.657zm-70.203 473.337h94.775v82.66l-27.816 12.702-66.96-12.702-27.816-69.958 27.817-12.702z"></path><linearGradient id="k" x1="357.186" x2="656.549" y1="504.4" y2="504.4" gradientUnits="userSpaceOnUse"><stop offset="0" stop-color="#fac600"></stop><stop offset="1" stop-color="#fbb606"></stop></linearGradient><path fill="url(#k)" d="M655.218 341.508a128.34 128.34 0 0 0-1.551-9.277c-4.372-21.578-13.774-41.04-28.206-58.403a122.227 122.227 0 0 0-13.555-14.025c-25.213-22.283-59.155-33.409-101.778-33.409-18.726 0-35.273 1.896-49.643 5.657-27.423 6.973-48.813 18.272-64.185 33.942-22.737 23.207-35.775 51.774-39.113 85.7l91.263 13.931c1.332-11.596 3.839-21.766 7.522-30.463 8.352-20.873 22.064-32.327 41.118-34.365 20.387-2.319 35.932 2.758 46.634 15.231 2.711 2.993 5.03 6.315 6.973 9.951 5.046 9.371 7.569 20.841 7.569 34.412 0 18.287-3.353 35.681-10.029 52.213-11.706 28.426-33.268 56.115-64.687 83.099-17.755 15.232-30.102 35.383-37.013 60.456a161.76 161.76 0 0 0-3.29 14.542c-2.225 12.129-3.322 25.276-3.322 39.41v32.641h94.773V610.11c0-9.558.329-18.271 1.003-26.091 1.347-23.505 12.254-44.08 32.735-61.788 52.824-45.616 81.892-93.488 87.22-143.586a160.59 160.59 0 0 0 .893-16.939c0-6.909-.438-13.648-1.331-20.198zM439.925 699.744v82.66h94.773v-82.66h-94.773z"></path><g opacity=".2"><path fill="#fff" d="M653.666 332.231 446.538 556.158c6.911-25.072 19.259-45.224 37.013-60.456 31.419-26.984 52.981-54.673 64.687-83.099 6.676-16.532 10.029-33.926 10.029-52.213 0-13.571-2.523-25.041-7.569-34.412l61.208-66.175a122.227 122.227 0 0 1 13.555 14.025c14.431 17.363 23.833 36.826 28.205 58.403zM656.549 361.707c0 5.673-.298 11.314-.893 16.939L439.925 611.897v-1.787c0-14.135 1.097-27.282 3.322-39.41l211.97-229.192c.894 6.55 1.332 13.289 1.332 20.199z"></path></g><path fill="#231f20" d="m582.65 503.803-37.739 28.57-24.848-19.525-.72-.029c-1.31-2.193-4.099-6.634-5.705-7.539-2.152-1.211-6.991-1.429-6.991-1.429s-6.152-5.113-6.358-3.27c-.205 1.843 2.166 4.496 2.166 4.496s-12.525-3.7-12.894-1.891c-.37 1.81 1.684 10.626 10.743 9.479 9.06-1.147 8.793-.259 8.793-.259s15.836 32.671 34.811 35.73c14.721 2.374 47.286-23.24 47.286-23.24s12.78-18.105-8.544-21.093z" opacity=".1"></path><path fill="#f7baac" d="m582.65 498.007-37.739 28.57-24.848-19.525-.72-.029c-1.31-2.193-4.099-6.634-5.705-7.539-2.152-1.211-6.991-1.429-6.991-1.429s-6.152-5.113-6.358-3.27c-.205 1.843 2.166 4.496 2.166 4.496s-12.525-3.7-12.894-1.891c-.37 1.81 1.684 10.626 10.743 9.479 9.06-1.147 8.793-.259 8.793-.259s15.836 32.671 34.811 35.73c14.721 2.374 47.286-23.24 47.286-23.24s12.78-18.105-8.544-21.093z"></path><path fill="#fef3c9" d="M596.741 485.444s-29.86 20.075-33.579 24.437c-4.701 5.515.376 26.893 8.227 25.773 7.851-1.119 21.415-10.857 21.415-10.857l3.937-39.353z"></path><path fill="#e8aaa0" d="M678.354 541.253c-.988-14.355-33.406-46.868-33.406-46.868-18.786-10.524-9.66 15.016-9.66 15.016s20.249 44.116 34.436 45.4c4 .362 8.995-8.236 8.63-13.548z"></path><path fill="#fef3c9" d="M633.006 485.622c11.476-5.565 38.928 34.283 34.344 37.725-4.584 3.442-14.832 20.678-20.406 15.036-5.573-5.642-12.22-21.096-12.22-21.096s-8.851-28.206-1.718-31.665z"></path><path fill="#e9c3b7" d="m651.391 758.225 3.828 14.667-10.873 2.233-4.5-16.726z"></path><path fill="#222b5e" d="m661.13 775.79-5.464-8.455H641.51s-1.047 6.242 1.425 10.47c2.483 4.206 8.456 4.081 8.456 4.081l9.739-6.096z"></path><path fill="#004a87" d="M651.391 781.886s.258-8.179 9.74-8.179c9.476 0 7.925 8.179 7.925 8.179h-17.665zM654.802 763.444s-3.056.987-7.303 1.332c-2.304.204-4.952.204-7.647-.235-4.059-.658-12.818-41.338-18.757-75.546-3.165-18.224-5.876-35.07-7.334-44.159.047-.016.078-.125.078-.329.251-2.68-1.755-21.061-6.08-29.24-2.539-4.795-5.782-9.057-8.838-13.539-3.432-5.061-5.206-4.191-6.773-10.13a38.157 38.157 0 0 1-.956-4.748c17.66-3.369 25.177-1.436 25.177-1.436s27.647-3.604 27.983 3.784c.312 6.857 4.026 45.891 4.026 45.891l6.424 128.355z"></path><path fill="#e9c3b7" d="m585.577 758.225-3.829 14.667 10.874 2.233 4.499-16.726z"></path><path fill="#004a87" d="M619.328 593.151s-19.35-6.247-36.79-7.737c-.203 1.556 1.917 81.288 3.039 86.448.979 4.504-5.194 90.463-2.222 91.698 3.967 1.649 13.271 1.695 14.402-.792 9.926-21.821 8.275-59.119 13.741-90.906 7.776-45.228 7.83-78.711 7.83-78.711z"></path><path fill="#222b5e" d="m575.837 775.79 5.464-8.455h14.156s1.047 6.242-1.425 10.47c-2.483 4.206-8.456 4.081-8.456 4.081l-9.739-6.096z"></path><path fill="#004a87" d="M585.577 781.886s-.258-8.179-9.74-8.179c-9.476 0-7.925 8.179-7.925 8.179h17.665z"></path><path fill="#222b5e" d="M647.5 764.955c-2.304.204-4.952.204-7.647-.235-4.059-.658-12.818-41.338-18.757-75.546-3.165-18.224-5.876-35.07-7.334-44.159l.078-.329 8.681-33.518s-1.41 42.31 0 53.043c1.364 10.5 23.913 96.701 24.979 100.744z"></path><path fill="#222b5e" d="m582.538 585.414-.014 8.149s24.065 12.802 36.398 12.109c12.334-.692 20.912-.289 26.025-8.382l-.595-8.093-61.814-3.783z" opacity=".3"></path><path fill="#fef3c9" d="M611.719 483.069c-6.405.353-21.316-1.324-23.908 9.312-3.11 12.764-14.124 90.346-5.273 96.899 20.864 15.446 57.624 10.989 62.217 2.604 8.829-16.118-.502-97.596-6.559-105.614-1.325-1.754-16.305-3.762-26.477-3.201z"></path><path fill="#f7b9ac" d="M623.809 485.335s-1.243-14.558-1.243-17.221c0-2.663 4.438-8.699.621-15.801-3.817-7.101-19.795-5.859-23.346 2.308-3.551 8.167-3.196 28.228 2.485 27.163 5.681-1.065 5.504-2.13 5.504-2.13l-.71 11.007s1.953 6.924 9.409 1.953c7.458-4.971 7.28-7.279 7.28-7.279z"></path><path fill="#e8a89e" d="m607.831 479.654 8.456-5.62s-4.899 9.613-8.829 11.41l.373-5.79zM598.06 461.57l-.255 2.053s3.358.856 8.794-1.026c5.436-1.882 8.01-7.031 8.01-7.031s-.895 7.885 1.119 8.252c2.015.367 4.141-5.23 4.141-5.23l1.236 8.393.891-12.087-5.708-4.029-18.228 10.705z"></path><path fill="#232b57" d="M614.4 453.023s-9.246 10.347-16.34 8.547c-7.095-1.8-13.841-8.79-9.758-13.905 4.083-5.116 6.391-22.514 21.304-18.076 0 0 12.783 1.42 11.362 6.214 0 0 10.297 0 9.409 8.344-.888 8.344-2.663 22.192-6.391 23.612-3.728 1.42-2.841-2.131-2.841-2.131l-.533-7.989s-1.42-1.775-1.953 1.775-2.486 4.438-2.841.355c-.353-4.083 2.488-6.213-1.418-6.746z"></path><path fill="#ffde6e" d="m628.762 500.704-7.832 3.823c-.841.411-1.29 1.357-1.093 2.303l5.363 25.669c.285 1.363 1.748 2.116 2.961 1.524l7.832-3.823c.841-.411 1.29-1.356 1.093-2.302l-5.362-25.669c-.286-1.363-1.75-2.117-2.962-1.525z"></path><path fill="#1f265a" d="m629.704 502.466-7.553 3.686a1.986 1.986 0 0 0-1.076 2.175l4.819 24.031a1.985 1.985 0 0 0 2.818 1.394l7.553-3.686a1.985 1.985 0 0 0 1.076-2.175l-4.819-24.031a1.985 1.985 0 0 0-2.818-1.394z"></path><path fill="#f7baac" d="M633.278 511.136s-.972-4.681.405-3.889c1.377.792 4.165 7.25 4.597 11.436.432 4.187-1.505 9.942-1.505 9.942s-11.474.362-15.003-5.606-2.181-12.611-2.181-12.611 7.471 4.846 10.331 3.377c2.86-1.469 3.356-2.649 3.356-2.649z"></path><path fill="#f7baac" d="M638.279 518.683s13.312 11.411 19.168 12.856c5.856 1.444 10.823 3.477 10.823 3.477s13.368 9.245 7.783 16.566c-5.584 7.321-15.118.647-20.175-4.734s-19.104-18.222-19.104-18.222-1.007-9.556 1.505-9.943z"></path><g opacity=".1"><path fill="#231f20" d="m652.843 451.463 95.669-.628a5.228 5.228 0 0 1 5.262 5.194l.227 34.503a5.228 5.228 0 0 1-5.193 5.262l-75.678.497c-4.757 5.638-10.496 13.011-10.496 13.011l-2.902-12.923-6.593.043a5.228 5.228 0 0 1-5.262-5.194l-.227-34.503a5.228 5.228 0 0 1 5.193-5.262z"></path></g><path fill="#ffde6e" d="m654.782 444.732 95.669-.629a5.228 5.228 0 0 1 5.262 5.194l.227 34.504a5.228 5.228 0 0 1-5.193 5.262l-75.678.497c-4.757 5.638-10.497 13.011-10.497 13.011l-2.902-12.924-6.593.044a5.229 5.229 0 0 1-5.262-5.194l-.226-34.503a5.227 5.227 0 0 1 5.193-5.262z"></path><path fill="#fff" d="M690.33 454.195h56.845v4.281H690.33zM690.33 472.175h56.845v4.281H690.33zM690.33 463.185h56.845v4.281H690.33zM668.449 471.522c-.156-.374-.236-.778-.236-1.339 0-4.764 4.698-5.2 4.698-10.618 0-1.557-.784-2.149-2.155-2.149-1.371 0-2.152.592-2.152 2.149v2.367h-4.07v-2.149c0-3.487 2.152-5.48 6.34-5.48 4.189 0 6.343 1.993 6.343 5.48 0 5.666-5.091 6.538-5.091 10.524 0 .404.038.81.156 1.214h-3.833zm3.952 1.525v3.301h-4.15v-3.301h4.15z"></path><path fill="#ffb092" d="m365.174 756.329.569 12.391s-11.161 1.784-10.921 1.048c.24-.735.355-21.041.355-21.041l9.997 7.602z"></path><path fill="#fec70e" d="M366.634 767.858s-10.587 2.106-12.025.485c0 0-1.125-3.825-2.197.707-1.072 4.533-1.295 7.918.22 8.887s31.363 1.349 31.363 1.349 3.482-3.814-3.458-5.197-13.903-6.231-13.903-6.231z"></path><path fill="#ffb092" d="m284.43 752.747-3.454 11.914s-11.14-1.907-10.676-2.526c.464-.619 7.115-19.805 7.115-19.805l7.015 10.417z"></path><path fill="#fec70e" d="M282.098 764.132s-10.701-1.417-11.54-3.416c0 0 .167-3.984-2.308-.038-2.475 3.945-3.777 7.079-2.655 8.484 1.122 1.405 29.256 11.382 29.256 11.382s4.525-2.489-1.599-6.034c-6.125-3.545-11.154-10.378-11.154-10.378z"></path><path fill="#222b5e" d="M352.9 575.902s12.684 98.501 13.988 101.109c1.304 2.608 2.31 86.655 2.31 86.655s-18.907 3.912-18.255-1.304c.652-5.216-20.224-120.471-20.224-120.471s-22.153-45.126-13.026-62.729c9.129-17.603 35.207-3.26 35.207-3.26z"></path><path fill="#004a87" d="M346.62 575.669c-21.989 99.963-29.267 113.399-29.267 113.399l-34.694 72.804s-19.106-2.781-16.712-7.461c2.394-4.679 27.555-97.319 27.555-97.319s-10.825-72.794 3.765-86.221c14.592-13.427 49.353 4.798 49.353 4.798z"></path><path fill="#e9c3b7" d="m431.896 500.076-42.356 5.48-25.299-11.271c-1.543.733-6.205 16.397-9.406 19.973 9.99 8.293 16.898 1.754 25.692 5.976 0 0 49.563-12.399 51.702-10.42-1.121-12.359-.333-9.738-.333-9.738z"></path><path fill="#e9c3b7" d="M449.089 507.312c.565 2.096-1.493 4.381-3.009 5.737-8.532-.575-15.369.945-21.877 2.909-.264-4.203-1.161-8.319-2.705-12.174 7.178-2.025 12.792-4.432 13.193-5.68.65-2.024 2.508-4.899 4.465-3.404 1.659 1.269.397 4.026.397 4.026s8.691 5.405 9.536 8.586z"></path><path fill="#004a87" d="M368.312 493.192c.498-6.541-16.39-19.446-16.39-19.446-8.444-8.499-25.515-.002-21.135 14.634 1.43 4.776 10.738 14.592 22.088 24.231 3.422-3.777 15.334-18.066 15.437-19.419z"></path><path fill="#fef3c9" d="M357.677 577.593c-5.896 1.488-11.885 2.529-17.737 3.227-22.463 2.696-43.029.39-48.376-1.614-.086-.035-.172-.069-.23-.102-.746-.306-1.139-.622-1.123-.885l.005-.087c13.643-37.335 7.332-29.529 15.556-68.638 4.573-21.729 6.84-27.062 11.289-33.592 5.118-7.461 12.882-12.71 19.004-12.71 0 0 9.544 2.653 13.946 8.919 1.223 1.742 4.446 8.543 5.667 10.844 3.124 6.017 4.475 23.179 4.111 39.011-.504 21.929-2.112 55.627-2.112 55.627z"></path><path fill="#ffde6e" d="m295.676 529.308 130.594-31.234a7.337 7.337 0 0 1 8.843 5.43l11.265 47.1a7.337 7.337 0 0 1-5.429 8.843L310.354 590.68a7.337 7.337 0 0 1-8.843-5.429l-11.264-47.099a7.337 7.337 0 0 1 5.429-8.844z"></path><linearGradient id="l" x1="381.807" x2="427.899" y1="534.713" y2="534.713" gradientUnits="userSpaceOnUse"><stop offset="0" stop-color="#fac600"></stop><stop offset="1" stop-color="#fbb606"></stop></linearGradient><circle cx="404.853" cy="534.713" r="23.041" fill="url(#l)"></circle><path fill="#f7941d" d="M392.64 531.109a2.525 2.525 0 1 0 4.914-1.162 2.525 2.525 0 0 0-4.914 1.162zM409.115 527.341a2.524 2.524 0 1 0 4.913-1.16 2.524 2.524 0 0 0-4.913 1.16z"></path><path fill="#f4cf67" d="M398.143 539.344a4.206 4.206 0 1 1-8.227 1.753 4.206 4.206 0 0 1 8.227-1.753zM421.095 534.453a4.206 4.206 0 1 1-8.227 1.753 4.206 4.206 0 0 1 8.227-1.753z" opacity=".4"></path><path fill="#f7941d" d="M407.068 545.15c5.327-1.061 8.797-6.258 7.736-11.585a.596.596 0 0 0-1.168.232c.933 4.683-2.118 9.253-6.801 10.186-4.684.933-9.252-2.118-10.185-6.801a.595.595 0 0 0-1.167.232c1.062 5.327 6.258 8.797 11.585 7.736z"></path><path fill="#fff" d="m309.306 548.798 59.932-13.825c1.248-.288 1.955-1.847 1.578-3.482-.377-1.635-1.695-2.727-2.943-2.439l-59.932 13.825c-1.248.288-1.955 1.847-1.577 3.482.376 1.635 1.694 2.727 2.942 2.439zM370.598 540.869l-59.932 13.825c-1.248.288-1.955 1.847-1.577 3.482.377 1.635 1.695 2.727 2.943 2.439l59.932-13.825c1.248-.288 1.955-1.847 1.578-3.482s-1.696-2.727-2.944-2.439zM373.324 552.685l-59.932 13.825c-1.249.288-1.955 1.847-1.578 3.482.377 1.635 1.695 2.727 2.943 2.439l59.932-13.825c1.248-.288 1.955-1.847 1.577-3.482-.376-1.634-1.694-2.726-2.942-2.439z"></path><path fill="#e9c3b7" d="M410.449 560.352s6.102-4.474 5.309-6.406c-.935-2.278-4.21-.407-9.193 3.417-.674.492-3.047 4.507-13.872.103l-31.564-13.786-17.089-39c-9.548 1.737-11.667 2.364-20.877 5.469 4.638 14.036 16.314 41.541 22.743 51.048 0 0 49.712 6.439 50.561 9.226.089-.189.161-.354.245-.538 3.957 1.411 7.982 3.299 12.15 6.126 1.993-.407 4.922-1.342 5.491-3.437.874-3.173 10.27 1.851 10.27 1.851s.468.041 1.22.102c.407-1.302.468-2.217.468-2.217-5.916-8.806-15.862-11.958-15.862-11.958z"></path><path fill="#004a87" d="M349.601 512.612c4.094-3.335-7.507-24.748-7.507-24.748-3.005-11.597-22.032-12.87-25.631 1.978-.993 4.096-.908 19.228 8.565 30.381 7.914.173 17.316-1.699 24.573-7.611z"></path><path fill="#e9c3b7" d="M436.737 501.673s-7.772 13.437-2.905 14.6c4.867 1.162 12.248-3.223 12.248-3.223s.245-11.377-9.343-11.377z"></path><path fill="#ddac9e" d="M339.969 453.505c-1.023 3.529-1.497 8.117-5.546 12.002-4.045 3.881-3.495 2.592-4.045 3.881-1.851 4.333 10.94 13.779 15.821 10.247 2.391-1.73 2.153-8.047 5.706-10.336 3.548-2.279-11.936-15.794-11.936-15.794z"></path><path fill="#e9c3b7" d="M370.911 455.266c.023-.07.04-.139.059-.209 2.255-7.176 5.236-12.542 3.635-18.052-.144-.505-1.991-2.034-2.757-2.859-4.749-11.436-31.879-8.921-33.441-.968-6.668 33.893 6.689 38.669 12.977 40.215 3.186.737 4.872 1.349 7.636.064 2.469-1.145 5.419-3.926 7.741-8.494 2.124-.11 4.412.154 4.804-1.043.098-.161.165-.346.166-.578-.795-2.348-.533-6.425-.82-8.076z"></path><path fill="#222b5e" d="M377.769 434.377c-3.311 1.798-8.33-9.368-18.001-13.423-3.052-1.279-6.047-2.419-8.648-2.282-6.571-.899-8.992 2.382-11.707 4.867-.723.686-12.943 3.333-10.375 19.732.706 4.489 1.761 6.566 2.014 9.316.682 7.397-1.016 8.351-1.016 8.351s5.87 2.716 7.539.299c6.832-9.959 13.967-11.104 13.967-11.104s.259-.748.674-1.804c2.313-.374 4.01.449 4.01.449s2.198-4.267 5.307-6.867c3.659-3.076 4.095-2.918 6.262-2.947 2.156-.029 7.102 3.335 7.102 3.335s8.319-10.884 2.872-7.922z"></path><path fill="#ddac9e" d="M354.296 447.924c-.191-4.38-3.434-4.638-5.269-2.96-1.783 1.716-1.277 8.359.018 9.21 3.599 2.367 5.251-6.25 5.251-6.25z"></path><path fill="#838bf3" d="m719.553 375.214.515-.857 2.586 1.554-.515.857c-.863 1.434-1.348 2.195-1.348 2.195l-.537.843-2.546-1.627.543-.845c.031-.047.497-.781 1.302-2.12zM726.961 361.958a318.538 318.538 0 0 0 2.317-4.51l.45-.893 2.694 1.356-.449.893a319.531 319.531 0 0 1-2.339 4.554l-.464.886-2.673-1.402.464-.884zM722.104 370.855c.742-1.302 1.57-2.783 2.469-4.428l.48-.879 2.645 1.448-.478.876a273.881 273.881 0 0 1-2.495 4.475l-.495.868-2.62-1.492.494-.868zM731.523 352.901a329.61 329.61 0 0 0 2.171-4.584l.422-.906 2.736 1.269-.421.908a336.272 336.272 0 0 1-2.191 4.626l-.435.9-2.716-1.311.434-.902zM739.748 334.37a284.653 284.653 0 0 0 1.858-4.712l.359-.934 2.815 1.082-.358.933a287.344 287.344 0 0 1-1.878 4.763l-.376.928-2.794-1.134.374-.926zM690.507 167.577c1.565.591 3.174 1.246 4.784 1.949l.917.4L695 172.69l-.916-.399a100.67 100.67 0 0 0-4.643-1.891l-.935-.354 1.065-2.822.936.353zM709.027 176.576a164.92 164.92 0 0 1 4.388 2.669l.846.533-1.606 2.553-.847-.533a164.745 164.745 0 0 0-4.308-2.621l-.863-.507 1.527-2.6.863.506zM743.379 324.91c.57-1.571 1.133-3.164 1.684-4.776l.323-.945 2.853.973-.322.946a256.603 256.603 0 0 1-1.702 4.832l-.341.939-2.836-1.029.341-.94zM699.971 171.693c1.512.741 3.052 1.534 4.577 2.357l.881.476-1.436 2.653-.879-.474a129.159 129.159 0 0 0-4.471-2.303l-.898-.44 1.328-2.708.898.439zM717.719 182.039c.974.65 1.958 1.322 2.948 2.011.432.299.862.602 1.286.908l.812.585-1.764 2.447-.811-.584a79.467 79.467 0 0 0-1.243-.876 189.318 189.318 0 0 0-2.904-1.982l-.83-.555 1.674-2.507.832.553zM733.767 194.982a86.832 86.832 0 0 1 3.537 3.778l.66.75-2.262 1.995-.662-.751a83.874 83.874 0 0 0-3.415-3.648l-.705-.71 2.141-2.124.706.71zM726.068 188.079a93.684 93.684 0 0 1 3.945 3.343l.746.668-2.014 2.244-.745-.667a90.794 90.794 0 0 0-3.819-3.234l-.781-.625 1.886-2.354.782.625zM735.788 343.702a290.551 290.551 0 0 0 2.018-4.649l.39-.921 2.777 1.179-.39.92a300.472 300.472 0 0 1-2.039 4.696l-.406.914-2.757-1.225.407-.914zM750.248 226.375a85.51 85.51 0 0 0-1.856-4.638l-.399-.916 2.764-1.204.4.917a88.051 88.051 0 0 1 1.924 4.804l.344.939-2.833 1.038-.344-.94zM753.145 235.948a90.435 90.435 0 0 0-1.314-4.829l-.29-.957 2.887-.874.289.957c.494 1.63.95 3.309 1.357 4.991l.235.971-2.93.712-.234-.971zM754.997 245.796c-.231-1.685-.5-3.351-.801-4.949l-.186-.984 2.965-.557.185.982c.31 1.647.588 3.363.825 5.099l.136.992-2.989.407-.135-.99zM746.652 315.328c.51-1.597 1.008-3.211 1.49-4.837l.284-.958 2.892.856-.284.959a243.993 243.993 0 0 1-1.508 4.898l-.304.953-2.874-.92.304-.951zM741.165 208.638a79.202 79.202 0 0 0-2.939-4.035l-.614-.789 2.381-1.852.614.79a83.024 83.024 0 0 1 3.051 4.187l.563.826-2.494 1.701-.562-.828zM746.255 217.222a77.803 77.803 0 0 0-2.41-4.37l-.511-.86 2.595-1.541.51.86a83.97 83.97 0 0 1 2.503 4.537l.456.891-2.688 1.374-.455-.891zM755.897 255.799c-.078-1.692-.192-3.38-.337-5.014l-.089-.995 3.004-.271.089.997c.151 1.69.268 3.421.346 5.146l.045.998-3.011.139-.047-1zM749.528 305.624c.442-1.619.867-3.251 1.274-4.893l.24-.97 2.93.724-.241.971a226.375 226.375 0 0 1-1.292 4.961l-.262.965-2.912-.792.263-.966zM755.944 265.859c.057-1.662.083-3.355.077-5.032l-.004-.999 3.016-.015.004 1.001a136.35 136.35 0 0 1-.078 5.149l-.033 1-3.017-.104.035-1zM751.957 295.817c.364-1.639.708-3.286 1.031-4.941l.191-.982 2.959.578-.19.98a199.188 199.188 0 0 1-1.045 5.017l-.216.977-2.947-.652.217-.977zM755.24 275.911c.155-1.487.292-3.016.405-4.541l.105-1.473 3.01.204-.106 1.489a155.138 155.138 0 0 1-.413 4.635l-.104.995-3.001-.315.104-.994zM753.885 285.909c.279-1.678.534-3.356.754-4.987l.134-.99 2.99.403-.135.992c-.221 1.633-.48 3.341-.767 5.078l-.164.987-2.977-.496.165-.987zM634.673 166.153l.968-.25.755 2.921-.969.249c-1.624.419-3.253.858-4.891 1.309l-.964.266-.802-2.908.964-.265c1.655-.456 3.301-.899 4.939-1.322zM550.098 176.801c1.628.151 3.309.296 5.046.431l.996.078-.233 3.008-.997-.078a344.961 344.961 0 0 1-5.091-.435l-.996-.093.281-3.003.994.092zM510.311 169.878c1.588.409 3.218.819 4.911 1.23l.972.236-.711 2.931-.972-.235a393.121 393.121 0 0 1-4.952-1.239l-.97-.249.752-2.923.97.249zM540.045 175.691c1.613.209 3.285.408 5.021.599l.995.11-.332 2.998-.993-.109a267.303 267.303 0 0 1-5.077-.607l-.991-.128.385-2.992.992.129zM530.053 174.192c1.595.275 3.253.544 4.984.802l.989.147-.445 2.986-.99-.149a239.58 239.58 0 0 1-5.052-.813l-.986-.17.513-2.973.987.17zM500.462 167.326c1.638.412 3.274.837 4.936 1.272l.967.253-.764 2.917-.967-.253c-1.652-.431-3.28-.855-4.908-1.265l-.97-.244.735-2.924.971.244zM520.144 172.246c1.583.35 3.226.693 4.944 1.031l.982.194-.585 2.958-.98-.193c-1.74-.342-3.406-.691-5.01-1.044l-.977-.215.648-2.948.978.217zM454.674 162.708l1-.028.085 3.013-.999.029c-1.629.047-3.315.11-5.061.189l-.998.045-.139-3.012.999-.046c1.764-.081 3.466-.144 5.113-.19zM680.64 164.466c1.636.41 3.313.886 4.983 1.415l.953.302-.909 2.876-.954-.302a82.03 82.03 0 0 0-4.807-1.365l-.971-.244.735-2.924.97.242zM474.991 163.056l1.182.087-.221 3.008-1.182-.087a154.69 154.69 0 0 0-4.848-.279l-.999-.042.127-3.014.999.042c1.668.071 3.33.167 4.942.285zM480.294 163.544c1.719.191 3.434.416 5.1.669l.988.15-.451 2.98-.988-.149a129.259 129.259 0 0 0-4.982-.651l-.994-.11.333-2.999.994.11zM490.458 165.08a147.1 147.1 0 0 1 5.027 1.053l.974.221-.665 2.942-.976-.221a141.13 141.13 0 0 0-4.925-1.03l-.983-.187.566-2.964.982.186zM464.919 162.625l1 .015-.044 3.016-1-.015c-1.62-.024-3.304-.028-5.054-.014l-.999.008-.027-3.016 1-.009c1.775-.015 3.481-.01 5.124.015zM654.909 162.427l.997-.086.258 3.006-.996.086c-1.619.14-3.291.332-4.97.572l-.991.142-.424-2.986.989-.142a92.862 92.862 0 0 1 5.137-.592z"></path><path fill="#838bf3" d="M619.241 169.488h7.09v3.016h-7.09z" transform="rotate(-15.796 622.84 171.006)"></path><path fill="#838bf3" d="m644.684 163.871.982-.188.567 2.964-.983.187c-1.553.296-3.162.636-4.919 1.039l-.974.224-.676-2.938.975-.225c1.759-.405 3.404-.752 5.028-1.063zM665.264 162.196l.999.044-.133 3.014-.999-.044a74.351 74.351 0 0 0-4.982-.05l-1.001.024-.067-3.017.999-.023a77.69 77.69 0 0 1 5.184.052zM670.438 162.604c1.721.196 3.448.453 5.134.763l.983.18-.542 2.967-.984-.181a74.061 74.061 0 0 0-4.932-.732l-.993-.113.339-2.999.995.115zM615.039 171.589l.964-.261.791 2.911-.967.261c-1.628.44-3.275.874-4.946 1.297l-.969.246-.741-2.925.97-.245c1.655-.419 3.286-.849 4.898-1.284zM564.229 177.832l2.028.104-.144 3.014-2.046-.105c-1.385-.076-2.74-.157-4.062-.243l-.998-.065.196-3.01.998.065c1.312.085 2.655.165 4.028.24zM585.361 177.381l.995-.098.294 3-.995.098c-1.716.17-3.44.308-5.124.411l-.997.061-.187-3.009.998-.062c1.658-.101 3.345-.237 5.016-.401zM575.319 178l1.001-.026.073 3.018-1 .025c-1.7.042-3.429.053-5.139.033l-.999-.011.033-3.017 1.001.012c1.683.019 3.375.008 5.03-.034zM605.229 174.061l.974-.224.676 2.939-.975.224c-1.689.388-3.377.752-5.015 1.081l-.981.197-.592-2.957.98-.197c1.607-.323 3.267-.68 4.933-1.063zM595.339 176.042l.987-.167.502 2.974-.986.167a150 150 0 0 1-5.081.772l-.991.132-.401-2.989.991-.133c1.645-.221 3.32-.475 4.979-.756zM441.675 163.348c.861-.058 1.71-.112 2.546-.164l.998-.062.186 3.01-.998.062a489.3 489.3 0 0 0-2.527.164l-.998.068-.205-3.01.998-.068z"></path><path fill="#f8ad18" d="m435.759 173.726-5.708 5.792s-35.739-5.923-33.105-5.714c2.634.208 36.639-11.997 36.639-11.997l2.174 11.919z"></path><path fill="#ffde6e" d="m439.686 177.189-2.126-9.842-34.46 5.591 31.564-8.445-2.719-6.757-35 16.068z"></path></svg>