<?xml version="1.0" encoding="UTF-8"?>
<!DOCTYPE svg PUBLIC "-//W3C//DTD SVG 1.1//EN" "http://www.w3.org/Graphics/SVG/1.1/DTD/svg11.dtd">
<svg xmlns="http://www.w3.org/2000/svg" version="1.1" width="2364px" height="2364px" style="shape-rendering:geometricPrecision; text-rendering:geometricPrecision; image-rendering:optimizeQuality; fill-rule:evenodd; clip-rule:evenodd" xmlns:xlink="http://www.w3.org/1999/xlink">
<g><path style="opacity:0.999" fill="#020d1d" d="M 1109.5,300.5 C 1116.26,300.123 1122.92,300.623 1129.5,302C 1132.43,303.271 1135.1,304.938 1137.5,307C 1147.21,315.71 1157.21,324.043 1167.5,332C 1176.33,337.531 1185.33,337.864 1194.5,333C 1205.75,325.091 1216.41,316.424 1226.5,307C 1234.9,300.407 1244.23,298.74 1254.5,302C 1318.37,317.614 1377.87,343.114 1433,378.5C 1432.98,376.08 1432.31,373.747 1431,371.5C 1420.9,355.219 1408.4,340.885 1393.5,328.5C 1460.85,349.988 1513.69,390.655 1552,450.5C 1564.6,472.097 1577.6,493.43 1591,514.5C 1591.74,498.988 1591.58,483.488 1590.5,468C 1590.83,466.167 1591.17,464.333 1591.5,462.5C 1622.46,504.452 1641.29,551.452 1648,603.5C 1654.08,598.095 1659.41,592.095 1664,585.5C 1686.96,543.125 1704.13,498.459 1715.5,451.5C 1716.55,451.351 1717.55,451.517 1718.5,452C 1727.15,460.98 1734.65,470.814 1741,481.5C 1769.82,529.95 1790.82,581.617 1804,636.5C 1823.95,731.202 1810.61,820.869 1764,905.5C 1753.5,923.172 1742.5,940.505 1731,957.5C 1716.29,973.872 1701.96,990.539 1688,1007.5C 1683.91,1016.85 1681.25,1026.52 1680,1036.5C 1708.49,1021.67 1733.83,1002.67 1756,979.5C 1760,974.168 1763.5,968.502 1766.5,962.5C 1767,961.479 1767.67,961.312 1768.5,962C 1774.59,967.014 1779.09,973.181 1782,980.5C 1804.11,1042.89 1806.11,1105.89 1788,1169.5C 1781.02,1191.46 1771.35,1212.13 1759,1231.5C 1746.88,1248.29 1735.55,1265.63 1725,1283.5C 1723.69,1287.42 1722.69,1291.42 1722,1295.5C 1721.88,1313.53 1721.22,1331.53 1720,1349.5C 1716.48,1370.71 1706.65,1388.21 1690.5,1402C 1678.72,1408.61 1666.05,1411.78 1652.5,1411.5C 1636.06,1410.69 1619.72,1409.02 1603.5,1406.5C 1602.75,1407.38 1602.25,1408.38 1602,1409.5C 1596.38,1443.89 1590.55,1478.22 1584.5,1512.5C 1624.28,1517.85 1658.61,1506.68 1687.5,1479C 1698.21,1467.29 1708.54,1455.29 1718.5,1443C 1719.45,1442.38 1720.28,1442.55 1721,1443.5C 1730.47,1470.73 1733.8,1498.73 1731,1527.5C 1726.43,1579.18 1702.6,1619.01 1659.5,1647C 1635.86,1658.46 1610.86,1664.46 1584.5,1665C 1576.84,1665.5 1569.17,1665.67 1561.5,1665.5C 1560.76,1685.22 1559.26,1704.89 1557,1724.5C 1555.72,1739.22 1549.56,1751.39 1538.5,1761C 1509.5,1780.17 1479.83,1798.34 1449.5,1815.5C 1448.69,1825.12 1448.19,1834.79 1448,1844.5C 1447.2,1847.89 1446.2,1851.23 1445,1854.5C 1413.11,1913.43 1371.77,1965.1 1321,2009.5C 1307.17,2024 1293.33,2038.5 1279.5,2053C 1275.17,2056 1270.83,2059 1266.5,2062C 1239.32,2086.69 1211.98,2111.19 1184.5,2135.5C 1177.99,2132.42 1171.99,2128.58 1166.5,2124C 1140.06,2099.96 1113.06,2076.62 1085.5,2054C 1051.33,2019.17 1017.17,1984.33 983,1949.5C 955.912,1918.34 933.579,1884.01 916,1846.5C 915.498,1835.8 914.665,1825.14 913.5,1814.5C 899.223,1808.03 885.557,1800.53 872.5,1792C 855.833,1781.33 839.167,1770.67 822.5,1760C 813.665,1753.5 809.165,1744.66 809,1733.5C 806.023,1710.87 803.523,1688.2 801.5,1665.5C 771.593,1666.63 742.593,1662.13 714.5,1652C 681.29,1635.46 657.79,1609.96 644,1575.5C 628.572,1532.81 627.572,1489.81 641,1446.5C 641.583,1445 642.416,1443.67 643.5,1442.5C 655.919,1457.09 668.919,1471.26 682.5,1485C 710.689,1508.28 743.022,1517.61 779.5,1513C 773.44,1477.48 767.107,1441.98 760.5,1406.5C 744.261,1408.89 727.927,1410.56 711.5,1411.5C 679.086,1412.24 657.919,1397.24 648,1366.5C 646.462,1361.55 645.128,1356.55 644,1351.5C 642.781,1335.53 642.114,1319.53 642,1303.5C 641.837,1292.34 638.837,1282.01 633,1272.5C 619.589,1254.02 606.922,1235.02 595,1215.5C 561.241,1149.33 553.908,1080.33 573,1008.5C 576.678,995.131 581.345,982.131 587,969.5C 589.719,966.078 592.886,963.578 596.5,962C 605.227,978.069 616.894,991.736 631.5,1003C 647.484,1015.33 664.484,1026.16 682.5,1035.5C 682.385,1025.38 679.885,1015.71 675,1006.5C 636.2,965.34 604.867,919.006 581,867.5C 548.577,791.846 541.577,713.846 560,633.5C 573.968,578.238 595.635,526.238 625,477.5C 630.695,468.133 637.528,459.633 645.5,452C 646.744,451.544 647.577,452.044 648,453.5C 654.732,479.696 663.065,505.363 673,530.5C 686.663,554.498 700.83,578.165 715.5,601.5C 722.565,552.785 739.731,508.118 767,467.5C 768.959,466.252 770.459,464.585 771.5,462.5C 771.833,463 772.167,463.5 772.5,464C 770.277,482.456 768.777,500.956 768,519.5C 779.751,502.337 790.751,484.671 801,466.5C 822.784,431.375 849.617,400.542 881.5,374C 908.269,353.115 937.936,337.782 970.5,328C 953.491,342.001 939.824,358.668 929.5,378C 965.645,358.429 1002.64,340.095 1040.5,323C 1062.86,313.155 1085.86,305.655 1109.5,300.5 Z"/></g>
<g><path style="opacity:1" fill="#fcfcfc" d="M 786.5,879.5 C 759.129,861.64 734.629,840.306 713,815.5C 675.947,767.714 650.947,714.047 638,654.5C 633.439,658.827 630.772,664.16 630,670.5C 627.667,684.5 625.333,698.5 623,712.5C 622.825,730.19 622.158,747.857 621,765.5C 620.408,769.276 619.408,772.943 618,776.5C 617.329,777.252 616.496,777.586 615.5,777.5C 614.555,762.821 613.388,748.154 612,733.5C 609.772,701.233 613.105,669.566 622,638.5C 626.058,623.587 630.725,608.921 636,594.5C 645.21,610.795 652.877,627.795 659,645.5C 679.115,689.948 710.615,723.781 753.5,747C 770.198,755.349 786.864,763.682 803.5,772C 823.257,783.586 829.424,800.419 822,822.5C 814.7,844.457 802.866,863.457 786.5,879.5 Z"/></g>
<g><path style="opacity:1" fill="#fcfcfc" d="M 1748.5,776.5 C 1746.67,773.158 1745.5,769.491 1745,765.5C 1741.45,738.528 1738.11,711.528 1735,684.5C 1733.7,674.385 1731.87,664.385 1729.5,654.5C 1724.7,660.44 1721.2,667.107 1719,674.5C 1698.62,761.648 1651.46,829.981 1577.5,879.5C 1560.28,863.075 1548.11,843.409 1541,820.5C 1534.4,799.278 1540.57,783.112 1559.5,772C 1577.62,762.622 1595.96,753.622 1614.5,745C 1656.29,720.542 1686.79,686.042 1706,641.5C 1710.8,628.754 1715.8,616.087 1721,603.5C 1722.75,600.328 1724.75,597.328 1727,594.5C 1750.56,653.081 1757.73,713.748 1748.5,776.5 Z"/></g>
<g><path style="opacity:1" fill="#acacac" d="M 786.5,879.5 C 781.541,892.792 772.541,902.125 759.5,907.5C 755.912,904.741 752.746,901.408 750,897.5C 733.95,882.961 718.283,867.961 703,852.5C 684.781,830.082 670.115,805.415 659,778.5C 650.007,755.854 642.007,732.854 635,709.5C 631.612,719.545 629.612,729.878 629,740.5C 628.804,762.517 628.137,784.517 627,806.5C 626.796,809.797 625.963,812.797 624.5,815.5C 621.498,802.827 618.498,790.16 615.5,777.5C 616.496,777.586 617.329,777.252 618,776.5C 619.408,772.943 620.408,769.276 621,765.5C 622.158,747.857 622.825,730.19 623,712.5C 625.333,698.5 627.667,684.5 630,670.5C 630.772,664.16 633.439,658.827 638,654.5C 650.947,714.047 675.947,767.714 713,815.5C 734.629,840.306 759.129,861.64 786.5,879.5 Z"/></g>
<g><path style="opacity:1" fill="#acacac" d="M 1748.5,776.5 C 1747.35,786.194 1746.02,795.861 1744.5,805.5C 1742.61,804.298 1740.77,802.965 1739,801.5C 1737.87,797.535 1736.87,793.535 1736,789.5C 1736.11,774.169 1736.11,758.836 1736,743.5C 1734.96,731.812 1732.46,720.479 1728.5,709.5C 1717.24,747.126 1702.74,783.459 1685,818.5C 1677.17,832 1668.17,844.667 1658,856.5C 1646.3,867.92 1634.14,878.753 1621.5,889C 1615.97,895.363 1610.3,901.529 1604.5,907.5C 1591.43,902.1 1582.43,892.766 1577.5,879.5C 1651.46,829.981 1698.62,761.648 1719,674.5C 1721.2,667.107 1724.7,660.44 1729.5,654.5C 1731.87,664.385 1733.7,674.385 1735,684.5C 1738.11,711.528 1741.45,738.528 1745,765.5C 1745.5,769.491 1746.67,773.158 1748.5,776.5 Z"/></g>
<g><path style="opacity:1" fill="#ed2c33" d="M 1372.5,698.5 C 1363.12,702.022 1354.46,706.856 1346.5,713C 1309.2,740.63 1275.37,772.13 1245,807.5C 1234.52,820.949 1225.69,835.449 1218.5,851C 1223.96,849.28 1229.29,846.947 1234.5,844C 1265.06,825.051 1297.06,808.718 1330.5,795C 1354.4,785.069 1379.07,782.236 1404.5,786.5C 1410.68,817.223 1417.18,847.89 1424,878.5C 1434.38,909.779 1451.21,936.946 1474.5,960C 1479.57,963.824 1484.57,966.991 1489.5,969.5C 1474.56,944.508 1464.06,917.841 1458,889.5C 1467.42,903.335 1476.09,917.668 1484,932.5C 1498.99,956.262 1517.16,977.429 1538.5,996C 1554.63,1009.13 1570.46,1022.63 1586,1036.5C 1579.14,1070.94 1571.47,1105.28 1563,1139.5C 1560.82,1142.54 1558.65,1145.54 1556.5,1148.5C 1549.98,1145.07 1543.64,1141.41 1537.5,1137.5C 1516.2,1125.85 1495.87,1112.68 1476.5,1098C 1502.97,1088.27 1530.3,1082.44 1558.5,1080.5C 1555.58,1075.41 1552.08,1070.74 1548,1066.5C 1526.23,1047.73 1503.07,1030.9 1478.5,1016C 1473.36,1013.75 1468.03,1013.09 1462.5,1014C 1452.14,1019.02 1441.47,1023.18 1430.5,1026.5C 1418.18,1030.49 1406.18,1035.32 1394.5,1041C 1360.99,1058.92 1327.32,1076.59 1293.5,1094C 1286.39,1097.55 1279.06,1100.55 1271.5,1103C 1265.9,1104.46 1260.24,1104.79 1254.5,1104C 1236.9,1095.95 1218.74,1089.45 1200,1084.5C 1199.5,1084.83 1199,1085.17 1198.5,1085.5C 1207.41,1103.07 1213.41,1121.57 1216.5,1141C 1216.81,1151.39 1212.47,1159.06 1203.5,1164C 1152.67,1173.81 1136.5,1154.31 1155,1105.5C 1158.36,1098.47 1161.36,1091.47 1164,1084.5C 1143.24,1089.31 1122.74,1095.14 1102.5,1102C 1096.1,1102.82 1089.76,1102.48 1083.5,1101C 1070.59,1095.55 1057.92,1089.55 1045.5,1083C 1002.97,1059.9 959.972,1037.57 916.5,1016C 909.321,1015.18 902.321,1015.35 895.5,1016.5C 885.831,1015.58 877.164,1018.08 869.5,1024C 856.785,1034.38 843.785,1044.38 830.5,1054C 821.453,1061.53 812.787,1069.53 804.5,1078C 831.833,1084.67 859.167,1091.33 886.5,1098C 865.833,1112 845.167,1126 824.5,1140C 822.875,1140.85 822.542,1141.85 823.5,1143C 832.659,1145.16 841.326,1148.5 849.5,1153C 874.299,1174.8 899.966,1195.47 926.5,1215C 950.253,1228.56 975.586,1233.06 1002.5,1228.5C 997.873,1237.64 991.54,1245.47 983.5,1252C 976.008,1257.58 968.341,1262.91 960.5,1268C 954.833,1272.33 949.833,1277.33 945.5,1283C 954.364,1281.72 963.031,1279.38 971.5,1276C 991.953,1266.94 1012.29,1257.61 1032.5,1248C 1051.83,1237 1071.17,1226 1090.5,1215C 1094.74,1213.2 1099.08,1211.7 1103.5,1210.5C 1104.77,1210.57 1105.94,1210.9 1107,1211.5C 1107.49,1213.13 1107.66,1214.8 1107.5,1216.5C 1096.31,1228.54 1086.81,1241.87 1079,1256.5C 1075.83,1260.33 1072.67,1264.17 1069.5,1268C 1067.87,1269.31 1066.03,1270.14 1064,1270.5C 1061.12,1269.64 1058.29,1268.64 1055.5,1267.5C 1052.09,1268.63 1049.26,1270.63 1047,1273.5C 1023.29,1309.09 999.457,1344.59 975.5,1380C 978.743,1381.02 982.076,1381.52 985.5,1381.5C 993.144,1380.17 1000.81,1379.33 1008.5,1379C 1010.6,1381.04 1011.77,1383.54 1012,1386.5C 1012.5,1390.49 1012.67,1394.49 1012.5,1398.5C 998.909,1400.38 985.909,1404.22 973.5,1410C 954.742,1426.09 935.409,1441.43 915.5,1456C 908.167,1460.67 900.833,1465.33 893.5,1470C 887.131,1473.35 880.465,1475.85 873.5,1477.5C 871.112,1476.78 869.612,1475.11 869,1472.5C 867.465,1468.23 866.131,1463.89 865,1459.5C 861.964,1443.37 859.464,1427.2 857.5,1411C 885.845,1409.12 914.178,1407.12 942.5,1405C 929.522,1391.69 916.855,1378.02 904.5,1364C 893.012,1355.09 881.345,1346.42 869.5,1338C 853,1322.17 836.5,1306.33 820,1290.5C 814.506,1283.51 809.506,1276.18 805,1268.5C 807.806,1244.85 810.806,1221.19 814,1197.5C 814.667,1185.83 814.667,1174.17 814,1162.5C 813.116,1155.96 811.449,1149.63 809,1143.5C 793.442,1110.33 779.942,1076.33 768.5,1041.5C 768.529,1039.97 769.196,1038.8 770.5,1038C 795.062,1022.12 817.895,1003.95 839,983.5C 849.383,970.785 859.383,957.785 869,944.5C 881,925.833 893,907.167 905,888.5C 903.8,899.784 901.134,910.784 897,921.5C 890.212,938.245 882.879,954.579 875,970.5C 881.218,965.281 887.718,960.448 894.5,956C 916.776,929.625 932.942,899.791 943,866.5C 946.612,847.55 949.945,828.55 953,809.5C 954.547,801.979 956.713,794.645 959.5,787.5C 967.64,784.963 975.973,784.13 984.5,785C 999.595,786.44 1014.26,789.774 1028.5,795C 1039.25,799.138 1049.91,803.471 1060.5,808C 1087.93,821.465 1115.1,835.299 1142,849.5C 1142.67,848.167 1142.67,846.833 1142,845.5C 1137.2,834.39 1131.2,824.056 1124,814.5C 1092.66,775.823 1056.83,741.99 1016.5,713C 1009.97,708.572 1003.31,704.405 996.5,700.5C 990.484,697.991 984.818,694.824 979.5,691C 970.782,683.948 961.782,677.281 952.5,671C 969.306,675.393 985.306,682.06 1000.5,691C 1044.66,714.405 1085.33,742.739 1122.5,776C 1134.84,787.661 1145.67,800.494 1155,814.5C 1161,825.167 1167,835.833 1173,846.5C 1176.27,850.728 1179.77,854.728 1183.5,858.5C 1200.03,821.123 1224.03,789.289 1255.5,763C 1295.82,729.819 1339.82,702.152 1387.5,680C 1393.29,677.289 1399.29,675.622 1405.5,675C 1394.32,682.696 1383.32,690.53 1372.5,698.5 Z"/></g>
<g><path style="opacity:1" fill="#910a23" d="M 1372.5,698.5 C 1355.51,716.989 1338.01,734.989 1320,752.5C 1314.75,759.332 1310.25,766.665 1306.5,774.5C 1306.83,774.833 1307.17,775.167 1307.5,775.5C 1330.68,764.077 1354.01,752.91 1377.5,742C 1430.02,720.305 1484.69,711.639 1541.5,716C 1539.55,720.28 1536.55,723.613 1532.5,726C 1515.33,734.745 1499,744.745 1483.5,756C 1478.3,760.865 1473.47,766.032 1469,771.5C 1465.45,779.264 1463.95,787.43 1464.5,796C 1466.52,826.07 1475.02,854.237 1490,880.5C 1512.64,920.258 1542.14,954.092 1578.5,982C 1594.5,993.504 1611.84,1002.67 1630.5,1009.5C 1631.65,1012.45 1631.82,1015.45 1631,1018.5C 1629.14,1028.28 1626.8,1037.95 1624,1047.5C 1614.56,1074.39 1604.56,1101.05 1594,1127.5C 1586.35,1145.09 1583.02,1163.42 1584,1182.5C 1590.98,1209.75 1597.65,1237.09 1604,1264.5C 1605.7,1274.99 1603.7,1284.65 1598,1293.5C 1583.09,1307.75 1567.59,1321.25 1551.5,1334C 1528.17,1350.67 1504.83,1367.33 1481.5,1384C 1498.84,1384.63 1516.18,1384.47 1533.5,1383.5C 1533.67,1401.84 1533.5,1420.17 1533,1438.5C 1529.19,1456.31 1527.02,1474.31 1526.5,1492.5C 1519.28,1492.11 1512.28,1490.61 1505.5,1488C 1479.75,1477.3 1456.09,1463.3 1434.5,1446C 1419.83,1434 1405.17,1422 1390.5,1410C 1384.14,1406.55 1377.47,1403.88 1370.5,1402C 1356.81,1399.02 1343.14,1396.19 1329.5,1393.5C 1333.19,1385.98 1337.86,1379.15 1343.5,1373C 1349.33,1369.92 1355,1366.59 1360.5,1363C 1338.26,1340.84 1319.92,1315.84 1305.5,1288C 1298.66,1287.89 1292.33,1289.72 1286.5,1293.5C 1285.03,1292.56 1284.03,1291.23 1283.5,1289.5C 1282.01,1288.76 1280.51,1288.09 1279,1287.5C 1267.1,1261.98 1258.94,1235.31 1254.5,1207.5C 1254.83,1206.5 1255.17,1205.5 1255.5,1204.5C 1298.79,1232.82 1344.46,1256.98 1392.5,1277C 1398.7,1279.52 1405.03,1281.18 1411.5,1282C 1391.86,1266.2 1374.86,1248.03 1360.5,1227.5C 1383.54,1233.43 1405.87,1230.93 1427.5,1220C 1435.77,1215.4 1443.77,1210.4 1451.5,1205C 1470.17,1189.67 1488.83,1174.33 1507.5,1159C 1516.65,1151.92 1526.32,1145.59 1536.5,1140C 1537.25,1139.33 1537.59,1138.5 1537.5,1137.5C 1543.64,1141.41 1549.98,1145.07 1556.5,1148.5C 1558.65,1145.54 1560.82,1142.54 1563,1139.5C 1571.47,1105.28 1579.14,1070.94 1586,1036.5C 1570.46,1022.63 1554.63,1009.13 1538.5,996C 1517.16,977.429 1498.99,956.262 1484,932.5C 1476.09,917.668 1467.42,903.335 1458,889.5C 1464.06,917.841 1474.56,944.508 1489.5,969.5C 1484.57,966.991 1479.57,963.824 1474.5,960C 1451.21,936.946 1434.38,909.779 1424,878.5C 1417.18,847.89 1410.68,817.223 1404.5,786.5C 1379.07,782.236 1354.4,785.069 1330.5,795C 1297.06,808.718 1265.06,825.051 1234.5,844C 1229.29,846.947 1223.96,849.28 1218.5,851C 1225.69,835.449 1234.52,820.949 1245,807.5C 1275.37,772.13 1309.2,740.63 1346.5,713C 1354.46,706.856 1363.12,702.022 1372.5,698.5 Z"/></g>
<g><path style="opacity:1" fill="#910a24" d="M 996.5,700.5 C 1003.31,704.405 1009.97,708.572 1016.5,713C 1056.83,741.99 1092.66,775.823 1124,814.5C 1131.2,824.056 1137.2,834.39 1142,845.5C 1142.67,846.833 1142.67,848.167 1142,849.5C 1115.1,835.299 1087.93,821.465 1060.5,808C 1049.91,803.471 1039.25,799.138 1028.5,795C 1014.26,789.774 999.595,786.44 984.5,785C 975.973,784.13 967.64,784.963 959.5,787.5C 956.713,794.645 954.547,801.979 953,809.5C 949.945,828.55 946.612,847.55 943,866.5C 932.942,899.791 916.776,929.625 894.5,956C 887.718,960.448 881.218,965.281 875,970.5C 882.879,954.579 890.212,938.245 897,921.5C 901.134,910.784 903.8,899.784 905,888.5C 893,907.167 881,925.833 869,944.5C 859.383,957.785 849.383,970.785 839,983.5C 817.895,1003.95 795.062,1022.12 770.5,1038C 769.196,1038.8 768.529,1039.97 768.5,1041.5C 779.942,1076.33 793.442,1110.33 809,1143.5C 811.449,1149.63 813.116,1155.96 814,1162.5C 814.667,1174.17 814.667,1185.83 814,1197.5C 810.806,1221.19 807.806,1244.85 805,1268.5C 809.506,1276.18 814.506,1283.51 820,1290.5C 836.5,1306.33 853,1322.17 869.5,1338C 881.345,1346.42 893.012,1355.09 904.5,1364C 916.855,1378.02 929.522,1391.69 942.5,1405C 914.178,1407.12 885.845,1409.12 857.5,1411C 859.464,1427.2 861.964,1443.37 865,1459.5C 866.131,1463.89 867.465,1468.23 869,1472.5C 869.612,1475.11 871.112,1476.78 873.5,1477.5C 864.291,1485.09 853.624,1488.76 841.5,1488.5C 836.168,1454.17 830.834,1419.84 825.5,1385.5C 848.571,1388.09 871.571,1391.09 894.5,1394.5C 894.833,1394.17 895.167,1393.83 895.5,1393.5C 892.356,1388.52 888.356,1384.36 883.5,1381C 847.367,1356.2 812.367,1329.87 778.5,1302C 772.967,1296.8 767.8,1291.3 763,1285.5C 762.333,1276.5 762.333,1267.5 763,1258.5C 769.284,1235.98 774.951,1213.32 780,1190.5C 781.892,1174.74 780.226,1159.41 775,1144.5C 757.42,1102.09 743.254,1058.59 732.5,1014C 732.833,1012.83 733.167,1011.67 733.5,1010.5C 736.304,1008.86 738.971,1007.03 741.5,1005C 761.162,994.171 780.495,982.838 799.5,971C 828.187,948.317 851.02,920.817 868,888.5C 882.829,862.847 893.162,835.513 899,806.5C 899.853,797.114 899.519,787.781 898,778.5C 896.861,774.888 895.194,771.554 893,768.5C 875.506,751.661 855.673,738.161 833.5,728C 828.211,724.38 823.211,720.38 818.5,716C 869.619,711.235 919.286,717.568 967.5,735C 997.289,748.645 1027.12,762.145 1057,775.5C 1056.28,772.377 1054.95,769.377 1053,766.5C 1037.82,746.642 1021.15,727.976 1003,710.5C 1000.56,707.28 998.397,703.947 996.5,700.5 Z"/></g>
<g><path style="opacity:1" fill="#747577" d="M 759.5,907.5 C 756.092,911.411 752.426,915.245 748.5,919C 744.514,921.665 740.181,922.665 735.5,922C 730.338,920.166 725.672,917.499 721.5,914C 693.79,890.961 673.956,862.461 662,828.5C 656.113,806.503 648.446,785.17 639,764.5C 639.237,785.698 641.57,806.698 646,827.5C 651.997,850.829 657.997,874.162 664,897.5C 664.667,899.167 664.667,900.833 664,902.5C 657.901,898.402 653.234,893.069 650,886.5C 643.391,871.615 637.058,856.615 631,841.5C 627.884,833.037 625.718,824.371 624.5,815.5C 625.963,812.797 626.796,809.797 627,806.5C 628.137,784.517 628.804,762.517 629,740.5C 629.612,729.878 631.612,719.545 635,709.5C 642.007,732.854 650.007,755.854 659,778.5C 670.115,805.415 684.781,830.082 703,852.5C 718.283,867.961 733.95,882.961 750,897.5C 752.746,901.408 755.912,904.741 759.5,907.5 Z"/></g>
<g><path style="opacity:1" fill="#747578" d="M 1744.5,805.5 C 1735.65,827.876 1727.48,850.543 1720,873.5C 1715.7,884.443 1709.2,893.776 1700.5,901.5C 1699.37,899.926 1699.2,898.259 1700,896.5C 1709.19,864.57 1716.85,832.237 1723,799.5C 1724.24,787.52 1724.57,775.52 1724,763.5C 1715.66,790.853 1706.33,817.853 1696,844.5C 1681.4,874.771 1660.57,899.938 1633.5,920C 1626.87,923.635 1620.53,923.301 1614.5,919C 1610.58,915.59 1607.25,911.757 1604.5,907.5C 1610.3,901.529 1615.97,895.363 1621.5,889C 1634.14,878.753 1646.3,867.92 1658,856.5C 1668.17,844.667 1677.17,832 1685,818.5C 1702.74,783.459 1717.24,747.126 1728.5,709.5C 1732.46,720.479 1734.96,731.812 1736,743.5C 1736.11,758.836 1736.11,774.169 1736,789.5C 1736.87,793.535 1737.87,797.535 1739,801.5C 1740.77,802.965 1742.61,804.298 1744.5,805.5 Z"/></g>
<g><path style="opacity:1" fill="#060d1d" d="M 1079.5,983.5 C 1101.41,993.788 1122.41,1005.62 1142.5,1019C 1156.95,1028.04 1172.62,1031.71 1189.5,1030C 1194.57,1028.97 1199.57,1027.64 1204.5,1026C 1221.94,1018.12 1238.94,1009.45 1255.5,1000C 1260.59,997.97 1265.76,996.136 1271,994.5C 1271.5,994.833 1272,995.167 1272.5,995.5C 1255.65,1019.85 1234.98,1040.35 1210.5,1057C 1198.54,1065.77 1185.21,1069.43 1170.5,1068C 1156.78,1060.47 1144.11,1051.47 1132.5,1041C 1115.28,1025.11 1098.78,1008.61 1083,991.5C 1081.55,988.929 1080.38,986.262 1079.5,983.5 Z"/></g>
<g><path style="opacity:1" fill="#910a24" d="M 895.5,1016.5 C 902.321,1015.35 909.321,1015.18 916.5,1016C 959.972,1037.57 1002.97,1059.9 1045.5,1083C 1057.92,1089.55 1070.59,1095.55 1083.5,1101C 1089.76,1102.48 1096.1,1102.82 1102.5,1102C 1122.74,1095.14 1143.24,1089.31 1164,1084.5C 1161.36,1091.47 1158.36,1098.47 1155,1105.5C 1136.5,1154.31 1152.67,1173.81 1203.5,1164C 1212.47,1159.06 1216.81,1151.39 1216.5,1141C 1213.41,1121.57 1207.41,1103.07 1198.5,1085.5C 1199,1085.17 1199.5,1084.83 1200,1084.5C 1218.74,1089.45 1236.9,1095.95 1254.5,1104C 1260.24,1104.79 1265.9,1104.46 1271.5,1103C 1279.06,1100.55 1286.39,1097.55 1293.5,1094C 1327.32,1076.59 1360.99,1058.92 1394.5,1041C 1406.18,1035.32 1418.18,1030.49 1430.5,1026.5C 1423.62,1035.88 1415.29,1043.71 1405.5,1050C 1379.67,1065.42 1354,1081.08 1328.5,1097C 1310.58,1107.8 1291.58,1116.13 1271.5,1122C 1264.65,1123.03 1257.98,1122.37 1251.5,1120C 1244.55,1115.38 1237.88,1110.38 1231.5,1105C 1226.7,1102.42 1221.7,1100.75 1216.5,1100C 1223.51,1112.53 1229.01,1125.7 1233,1139.5C 1233.67,1145.83 1233.67,1152.17 1233,1158.5C 1232.23,1162.05 1230.89,1165.38 1229,1168.5C 1224.59,1174.41 1219.43,1179.41 1213.5,1183.5C 1224.01,1213.87 1232.18,1244.87 1238,1276.5C 1241.74,1293.06 1247.07,1309.06 1254,1324.5C 1255.33,1325.83 1256.67,1327.17 1258,1328.5C 1264.43,1320.36 1272.59,1316.86 1282.5,1318C 1293.35,1326.35 1301.35,1336.85 1306.5,1349.5C 1302.55,1357.63 1297.22,1364.8 1290.5,1371C 1278.12,1381.71 1265.46,1392.05 1252.5,1402C 1241.47,1414.02 1230.14,1425.69 1218.5,1437C 1197.75,1450.27 1176.08,1451.93 1153.5,1442C 1148.99,1439.25 1144.66,1436.25 1140.5,1433C 1120.09,1411.26 1098.43,1390.92 1075.5,1372C 1068.26,1365.43 1061.76,1358.26 1056,1350.5C 1059.42,1343.36 1063.42,1336.36 1068,1329.5C 1072.53,1325.32 1077.7,1322.32 1083.5,1320.5C 1080.87,1328.64 1080.04,1336.98 1081,1345.5C 1083.08,1349.58 1085.91,1353.08 1089.5,1356C 1096.41,1359.71 1103.25,1363.54 1110,1367.5C 1117.8,1350.31 1121.47,1332.31 1121,1313.5C 1120.33,1311.5 1119.67,1309.5 1119,1307.5C 1118.62,1308.06 1118.12,1308.39 1117.5,1308.5C 1122.91,1281.03 1129.08,1253.69 1136,1226.5C 1140.04,1211.71 1144.87,1197.21 1150.5,1183C 1145.38,1179.55 1140.55,1175.71 1136,1171.5C 1129.81,1163.18 1127.81,1153.85 1130,1143.5C 1134.31,1129.58 1138.81,1115.74 1143.5,1102C 1137.43,1102.58 1131.76,1104.58 1126.5,1108C 1118.5,1114 1110.5,1120 1102.5,1126C 1099.74,1126.58 1097.08,1126.25 1094.5,1125C 1063.02,1111.93 1033.02,1096.26 1004.5,1078C 977.167,1060.67 949.833,1043.33 922.5,1026C 920.167,1023 917.833,1020 915.5,1017C 908.842,1016.5 902.175,1016.33 895.5,1016.5 Z"/></g>
<g><path style="opacity:1" fill="#8e0a23" d="M 1716.5,1066.5 C 1702.81,1091.46 1685.48,1114.29 1664.5,1135C 1659.61,1138.89 1654.44,1142.39 1649,1145.5C 1648.76,1137.12 1649.42,1128.78 1651,1120.5C 1653.16,1112.34 1657.66,1105.84 1664.5,1101C 1682.01,1089.64 1699.34,1078.14 1716.5,1066.5 Z"/></g>
<g><path style="opacity:1" fill="#8f0a23" d="M 647.5,1070.5 C 647.56,1069.96 647.893,1069.62 648.5,1069.5C 665.173,1079.5 681.506,1090 697.5,1101C 705.843,1106.69 711.01,1114.52 713,1124.5C 714.331,1131.46 714.664,1138.46 714,1145.5C 687.175,1124.43 665.008,1099.43 647.5,1070.5 Z"/></g>
<g><path style="opacity:1" fill="#a61424" d="M 1756.5,1074.5 C 1758.16,1075.95 1759,1077.95 1759,1080.5C 1761.28,1120.73 1751.94,1158.06 1731,1192.5C 1718.08,1213.35 1704.41,1233.68 1690,1253.5C 1686.53,1258.77 1683.86,1264.44 1682,1270.5C 1681.22,1283.05 1682.55,1295.38 1686,1307.5C 1689.13,1322.53 1685.8,1335.86 1676,1347.5C 1669.2,1353.16 1661.37,1356.33 1652.5,1357C 1644.75,1357.9 1637.09,1357.56 1629.5,1356C 1626.05,1353.5 1625.55,1350.33 1628,1346.5C 1638.09,1335.75 1647.42,1324.42 1656,1312.5C 1667.22,1296.18 1671.89,1278.18 1670,1258.5C 1667.49,1249.44 1664.82,1240.44 1662,1231.5C 1660.68,1222.21 1661.68,1213.21 1665,1204.5C 1669.2,1195.64 1674.2,1187.31 1680,1179.5C 1693.04,1164.79 1705.71,1149.79 1718,1134.5C 1729.01,1117.82 1739.01,1100.49 1748,1082.5C 1751.33,1080.33 1754.17,1077.67 1756.5,1074.5 Z"/></g>
<g><path style="opacity:1" fill="#c31a29" d="M 606.5,1076.5 C 608.887,1078.91 611.054,1081.58 613,1084.5C 618.575,1095.99 624.909,1106.99 632,1117.5C 649.621,1140.12 667.621,1162.46 686,1184.5C 691.085,1191 695.418,1198 699,1205.5C 701.435,1213.32 702.102,1221.32 701,1229.5C 698.254,1239.07 695.921,1248.74 694,1258.5C 691.505,1276.58 695.172,1293.25 705,1308.5C 714.283,1321.45 723.95,1334.12 734,1346.5C 735.753,1349 737.253,1351.67 738.5,1354.5C 726.866,1356.9 715.2,1357.06 703.5,1355C 689.359,1351.19 681.192,1342.02 679,1327.5C 678.833,1320.83 678.667,1314.17 678.5,1307.5C 678.433,1293.73 679.266,1280.06 681,1266.5C 678.769,1261.27 676.103,1256.27 673,1251.5C 659.667,1231.5 646.333,1211.5 633,1191.5C 620.139,1170.78 611.472,1148.45 607,1124.5C 605.245,1108.51 605.079,1092.51 606.5,1076.5 Z"/></g>
<g><path style="opacity:1" fill="#e1e05e" d="M 920.5,1113.5 C 922.564,1113.69 924.564,1114.19 926.5,1115C 940.01,1122.26 953.677,1129.26 967.5,1136C 990.439,1144.42 1013.11,1153.42 1035.5,1163C 1007.24,1181.37 976.905,1186.04 944.5,1177C 922.333,1166.83 913.166,1149.67 917,1125.5C 918.072,1121.45 919.239,1117.45 920.5,1113.5 Z"/></g>
<g><path style="opacity:1" fill="#e0df5e" d="M 1441.5,1112.5 C 1444.39,1117 1446.23,1122 1447,1127.5C 1450.2,1150.93 1441.04,1167.43 1419.5,1177C 1396.62,1184.72 1373.96,1184.06 1351.5,1175C 1343.22,1171.53 1335.22,1167.53 1327.5,1163C 1351.5,1152.5 1375.83,1142.84 1400.5,1134C 1414.23,1126.8 1427.89,1119.64 1441.5,1112.5 Z"/></g>
<g><path style="opacity:1" fill="#ed2c33" d="M 1171.5,1193.5 C 1189.75,1190.19 1201.58,1197.19 1207,1214.5C 1209.47,1235.1 1211.47,1255.77 1213,1276.5C 1218.49,1314.59 1223.33,1352.75 1227.5,1391C 1210.85,1410.64 1189.52,1419.31 1163.5,1417C 1144.41,1410.21 1135.08,1396.54 1135.5,1376C 1136.88,1362.15 1138.38,1348.32 1140,1334.5C 1146.42,1295.59 1152.08,1256.59 1157,1217.5C 1158.58,1207.31 1163.41,1199.31 1171.5,1193.5 Z"/></g>
<g><path style="opacity:1" fill="#900a24" d="M 1107.5,1216.5 C 1099.24,1240.11 1091.08,1263.77 1083,1287.5C 1081.6,1288.12 1080.1,1288.45 1078.5,1288.5C 1070.51,1287.44 1062.51,1286.94 1054.5,1287C 1038.69,1312.79 1021.52,1337.62 1003,1361.5C 1002.91,1363.11 1003.74,1364.28 1005.5,1365C 1010.83,1368.33 1016.17,1371.67 1021.5,1375C 1025.83,1380.67 1030.17,1386.33 1034.5,1392C 1027.04,1393.88 1019.71,1396.04 1012.5,1398.5C 1012.67,1394.49 1012.5,1390.49 1012,1386.5C 1011.77,1383.54 1010.6,1381.04 1008.5,1379C 1000.81,1379.33 993.144,1380.17 985.5,1381.5C 982.076,1381.52 978.743,1381.02 975.5,1380C 999.457,1344.59 1023.29,1309.09 1047,1273.5C 1049.26,1270.63 1052.09,1268.63 1055.5,1267.5C 1058.29,1268.64 1061.12,1269.64 1064,1270.5C 1066.03,1270.14 1067.87,1269.31 1069.5,1268C 1072.67,1264.17 1075.83,1260.33 1079,1256.5C 1086.81,1241.87 1096.31,1228.54 1107.5,1216.5 Z"/></g>
<g><path style="opacity:1" fill="#eb2c33" d="M 1083.5,1320.5 C 1086.92,1319.9 1090.25,1320.73 1093.5,1323C 1098.73,1327.53 1104.23,1331.7 1110,1335.5C 1112.61,1326.51 1115.11,1317.51 1117.5,1308.5C 1118.12,1308.39 1118.62,1308.06 1119,1307.5C 1119.67,1309.5 1120.33,1311.5 1121,1313.5C 1121.47,1332.31 1117.8,1350.31 1110,1367.5C 1103.25,1363.54 1096.41,1359.71 1089.5,1356C 1085.91,1353.08 1083.08,1349.58 1081,1345.5C 1080.04,1336.98 1080.87,1328.64 1083.5,1320.5 Z"/></g>
<g><path style="opacity:1" fill="#494949" d="M 1270.5,1431.5 C 1306.54,1434.09 1342.54,1437.26 1378.5,1441C 1369.83,1446.67 1361.17,1452.33 1352.5,1458C 1377.18,1472.34 1401.18,1487.67 1424.5,1504C 1469.64,1530.6 1517.97,1548.94 1569.5,1559C 1588.42,1560.92 1606.92,1559.09 1625,1553.5C 1642.4,1547.59 1659.57,1541.09 1676.5,1534C 1678.45,1533.01 1680.45,1532.68 1682.5,1533C 1676.04,1556.13 1661.71,1572.47 1639.5,1582C 1613.62,1591.2 1586.95,1594.54 1559.5,1592C 1527.74,1588.31 1496.74,1581.31 1466.5,1571C 1403.03,1545.18 1339.36,1520.18 1275.5,1496C 1285.8,1505.15 1296.47,1513.81 1307.5,1522C 1333.83,1538.84 1360.5,1555.17 1387.5,1571C 1395.34,1576.09 1403.01,1581.42 1410.5,1587C 1409.83,1587.17 1409.17,1587.33 1408.5,1587.5C 1351.25,1569.04 1297.91,1542.87 1248.5,1509C 1244.37,1505.87 1240.53,1502.37 1237,1498.5C 1237.16,1489.5 1240.16,1481.5 1246,1474.5C 1257.78,1462.29 1265.94,1447.96 1270.5,1431.5 Z"/></g>
<g><path style="opacity:1" fill="#494949" d="M 1054.5,1432.5 C 1067.5,1432.5 1080.5,1432.5 1093.5,1432.5C 1095.78,1440.49 1098.95,1448.16 1103,1455.5C 1109.76,1465.34 1116.76,1475.01 1124,1484.5C 1126.04,1490.03 1127.04,1495.69 1127,1501.5C 1084.89,1529.98 1040.39,1554.48 993.5,1575C 980.54,1580.57 967.206,1584.57 953.5,1587C 986.998,1565.42 1020.66,1544.08 1054.5,1523C 1068.2,1512.81 1081.53,1502.15 1094.5,1491C 1059.91,1507.55 1024.91,1523.55 989.5,1539C 940.728,1560.15 890.394,1576.48 838.5,1588C 809.691,1594.32 780.691,1595.65 751.5,1592C 719.89,1587.13 697.39,1570.3 684,1541.5C 682.477,1538.51 681.977,1535.51 682.5,1532.5C 697.282,1538.39 711.948,1544.56 726.5,1551C 747.926,1558.19 769.926,1560.53 792.5,1558C 836.501,1551 878.168,1537 917.5,1516C 941.844,1502.83 965.178,1488.17 987.5,1472C 995.5,1467.33 1003.5,1462.67 1011.5,1458C 1005.23,1455.51 998.895,1453.18 992.5,1451C 989.833,1449 987.167,1447 984.5,1445C 991.833,1441.58 999.5,1439.25 1007.5,1438C 1023.28,1435.89 1038.95,1434.05 1054.5,1432.5 Z"/></g>
<g><path style="opacity:1" fill="#f04e39" d="M 1178.5,1558.5 C 1187.21,1558.61 1195.54,1560.44 1203.5,1564C 1223.05,1573.11 1243.05,1581.11 1263.5,1588C 1269.36,1591.03 1273.69,1595.53 1276.5,1601.5C 1274.08,1606.09 1271.08,1610.25 1267.5,1614C 1263.62,1616.18 1259.46,1617.34 1255,1617.5C 1242.19,1614.95 1229.36,1612.45 1216.5,1610C 1198.9,1607.68 1181.23,1607.01 1163.5,1608C 1147.82,1610.5 1132.15,1613.17 1116.5,1616C 1104.14,1617.57 1094.64,1613.07 1088,1602.5C 1087.33,1601.5 1087.33,1600.5 1088,1599.5C 1092.93,1594.57 1098.43,1590.4 1104.5,1587C 1128.18,1574.61 1152.85,1565.11 1178.5,1558.5 Z"/></g>
<g><path style="opacity:1" fill="#ec2c33" d="M 934.5,1731.5 C 916.001,1725.5 903.501,1713.17 897,1694.5C 891.21,1678.35 892.71,1663.01 901.5,1648.5C 949.378,1634.37 997.378,1620.87 1045.5,1608C 1022.68,1624.25 999.012,1639.25 974.5,1653C 966.228,1657.94 960.061,1664.77 956,1673.5C 951.335,1687.49 946.669,1701.49 942,1715.5C 939.725,1721.04 937.225,1726.38 934.5,1731.5 Z"/></g>
<g><path style="opacity:1" fill="#910a24" d="M 1477.5,1657.5 C 1474.55,1657.22 1471.72,1657.56 1469,1658.5C 1468.93,1675.61 1466.26,1692.28 1461,1708.5C 1457.28,1714.44 1452.12,1718.61 1445.5,1721C 1439.88,1725.73 1435.88,1731.57 1433.5,1738.5C 1430.15,1735.3 1427.31,1731.64 1425,1727.5C 1419.4,1711.69 1414.4,1695.69 1410,1679.5C 1405.44,1665.61 1396.61,1655.44 1383.5,1649C 1370.17,1641.67 1356.83,1634.33 1343.5,1627C 1336.42,1622.75 1330.08,1617.58 1324.5,1611.5C 1325.17,1611.17 1325.83,1610.83 1326.5,1610.5C 1374.12,1622.21 1421.12,1636.04 1467.5,1652C 1471.35,1653.09 1474.68,1654.92 1477.5,1657.5 Z"/></g>
<g><path style="opacity:1" fill="#494949" d="M 1257.5,1644.5 C 1259.6,1646.1 1261.6,1647.93 1263.5,1650C 1287.72,1662.37 1307.88,1679.53 1324,1701.5C 1338.31,1728.1 1346.31,1756.43 1348,1786.5C 1348.06,1793.26 1345.73,1798.92 1341,1803.5C 1338.58,1799 1335.92,1794.67 1333,1790.5C 1320.49,1779.5 1309.66,1767.17 1300.5,1753.5C 1297.67,1751.25 1294.67,1749.25 1291.5,1747.5C 1290.67,1773.49 1290.17,1799.49 1290,1825.5C 1289.53,1854.58 1280.86,1880.91 1264,1904.5C 1255.62,1916.09 1247.12,1927.59 1238.5,1939C 1234.83,1940.5 1231.17,1942 1227.5,1943.5C 1218.82,1934.29 1212.32,1923.62 1208,1911.5C 1203.07,1897.76 1199.07,1883.76 1196,1869.5C 1192.33,1849.5 1188.67,1829.5 1185,1809.5C 1184.27,1805.25 1182.94,1801.25 1181,1797.5C 1176.67,1822.83 1172.33,1848.16 1168,1873.5C 1157.42,1896.98 1146.59,1920.32 1135.5,1943.5C 1128.15,1941.58 1122.31,1937.58 1118,1931.5C 1108.67,1918.17 1099.33,1904.83 1090,1891.5C 1086.02,1884.57 1083.02,1877.24 1081,1869.5C 1077.46,1854.35 1075.12,1839.02 1074,1823.5C 1072.99,1798.18 1072.33,1772.84 1072,1747.5C 1067.72,1750.12 1063.72,1753.12 1060,1756.5C 1057.67,1760.5 1055.33,1764.5 1053,1768.5C 1045.64,1776.2 1037.97,1783.53 1030,1790.5C 1027.08,1794.67 1024.42,1799 1022,1803.5C 1016.86,1795.28 1014.36,1786.28 1014.5,1776.5C 1018.73,1735.88 1035.4,1701.38 1064.5,1673C 1078.58,1663.97 1092.25,1654.47 1105.5,1644.5C 1112.05,1642.03 1118.71,1640.2 1125.5,1639C 1106.04,1652.12 1089.54,1668.29 1076,1687.5C 1074.09,1690.3 1073.09,1693.3 1073,1696.5C 1089.56,1684.42 1108.06,1678.59 1128.5,1679C 1142.77,1682.26 1153.27,1690.43 1160,1703.5C 1168.33,1719.5 1175,1736.17 1180,1753.5C 1183.83,1748.5 1187.17,1743.17 1190,1737.5C 1194.8,1722.23 1201.47,1707.9 1210,1694.5C 1220.96,1681.6 1234.79,1676.44 1251.5,1679C 1265.84,1682.26 1279.01,1688.09 1291,1696.5C 1290.63,1693.72 1289.63,1691.06 1288,1688.5C 1274.17,1669.33 1257.67,1652.83 1238.5,1639C 1244.98,1640.37 1251.32,1642.2 1257.5,1644.5 Z"/></g>
<g><path style="opacity:1" fill="#242931" d="M 1105.5,1644.5 C 1092.25,1654.47 1078.58,1663.97 1064.5,1673C 1035.4,1701.38 1018.73,1735.88 1014.5,1776.5C 1014.36,1786.28 1016.86,1795.28 1022,1803.5C 1024.42,1799 1027.08,1794.67 1030,1790.5C 1037.97,1783.53 1045.64,1776.2 1053,1768.5C 1055.33,1764.5 1057.67,1760.5 1060,1756.5C 1063.72,1753.12 1067.72,1750.12 1072,1747.5C 1072.33,1772.84 1072.99,1798.18 1074,1823.5C 1075.12,1839.02 1077.46,1854.35 1081,1869.5C 1083.02,1877.24 1086.02,1884.57 1090,1891.5C 1099.33,1904.83 1108.67,1918.17 1118,1931.5C 1122.31,1937.58 1128.15,1941.58 1135.5,1943.5C 1146.59,1920.32 1157.42,1896.98 1168,1873.5C 1172.33,1848.16 1176.67,1822.83 1181,1797.5C 1182.94,1801.25 1184.27,1805.25 1185,1809.5C 1188.67,1829.5 1192.33,1849.5 1196,1869.5C 1199.07,1883.76 1203.07,1897.76 1208,1911.5C 1212.32,1923.62 1218.82,1934.29 1227.5,1943.5C 1231.17,1942 1234.83,1940.5 1238.5,1939C 1247.12,1927.59 1255.62,1916.09 1264,1904.5C 1280.86,1880.91 1289.53,1854.58 1290,1825.5C 1290.17,1799.49 1290.67,1773.49 1291.5,1747.5C 1294.67,1749.25 1297.67,1751.25 1300.5,1753.5C 1309.66,1767.17 1320.49,1779.5 1333,1790.5C 1335.92,1794.67 1338.58,1799 1341,1803.5C 1345.73,1798.92 1348.06,1793.26 1348,1786.5C 1346.31,1756.43 1338.31,1728.1 1324,1701.5C 1307.88,1679.53 1287.72,1662.37 1263.5,1650C 1261.6,1647.93 1259.6,1646.1 1257.5,1644.5C 1284.2,1652.68 1308.87,1664.85 1331.5,1681C 1342.61,1692.03 1351.11,1704.86 1357,1719.5C 1371.53,1753.71 1378.87,1789.38 1379,1826.5C 1372.79,1849.28 1360.79,1868.28 1343,1883.5C 1340.02,1856.23 1332.68,1830.23 1321,1805.5C 1317.55,1799.58 1313.38,1794.25 1308.5,1789.5C 1307.48,1797.5 1307.64,1805.5 1309,1813.5C 1310.56,1841.32 1309.22,1868.98 1305,1896.5C 1301.5,1915 1294.5,1932 1284,1947.5C 1260.74,1978.09 1234.08,2005.43 1204,2029.5C 1196.66,1996.1 1189.32,1962.77 1182,1929.5C 1176.44,1950.96 1171.77,1972.63 1168,1994.5C 1165.45,2006.39 1162.11,2018.05 1158,2029.5C 1137.08,2009.58 1116.42,1989.25 1096,1968.5C 1064.41,1932.05 1050.58,1889.55 1054.5,1841C 1054.66,1823.47 1055.16,1805.97 1056,1788.5C 1046.5,1797.49 1039.5,1808.16 1035,1820.5C 1029.77,1841.54 1024.44,1862.54 1019,1883.5C 1002.54,1867.25 991.204,1847.92 985,1825.5C 982.72,1809.71 983.387,1794.05 987,1778.5C 993.761,1750.55 1003.09,1723.55 1015,1697.5C 1018.5,1692.67 1022.67,1688.5 1027.5,1685C 1044.05,1673.47 1061.38,1663.14 1079.5,1654C 1087.92,1650.14 1096.59,1646.97 1105.5,1644.5 Z"/></g>
<g><path style="opacity:1" fill="#900a23" d="M 901.5,1648.5 C 892.71,1663.01 891.21,1678.35 897,1694.5C 903.501,1713.17 916.001,1725.5 934.5,1731.5C 933.895,1734.13 933.395,1736.79 933,1739.5C 931.027,1740.64 929.193,1741.97 927.5,1743.5C 909.868,1733.03 892.368,1722.37 875,1711.5C 873.748,1703.15 872.415,1694.82 871,1686.5C 870.221,1677.47 870.388,1668.47 871.5,1659.5C 871.818,1658.35 872.484,1657.52 873.5,1657C 882.821,1654.06 892.154,1651.23 901.5,1648.5 Z"/></g>
<g><path style="opacity:1" fill="#ec2c33" d="M 1477.5,1657.5 C 1483.17,1657.5 1488.83,1657.5 1494.5,1657.5C 1493.26,1671.48 1492.09,1685.48 1491,1699.5C 1491.4,1706.63 1488.9,1712.47 1483.5,1717C 1468.83,1725.33 1454.17,1733.67 1439.5,1742C 1437.56,1742.81 1435.56,1743.31 1433.5,1743.5C 1433.5,1741.83 1433.5,1740.17 1433.5,1738.5C 1435.88,1731.57 1439.88,1725.73 1445.5,1721C 1452.12,1718.61 1457.28,1714.44 1461,1708.5C 1466.26,1692.28 1468.93,1675.61 1469,1658.5C 1471.72,1657.56 1474.55,1657.22 1477.5,1657.5 Z"/></g>
</svg>
